<svg xmlns="http://www.w3.org/2000/svg" viewBox="0 0 179.81 60.25"><defs><style>.cls-1{fill:#a3a3a3;}.cls-2{fill:#fff;}</style></defs><title>download</title><g id="Layer_2" data-name="Layer 2"><g id="DT"><path class="cls-1" d="M165.49,0H12.68L11.3,0a19,19,0,0,0-3,.27,10.33,10.33,0,0,0-2.86.94A9.81,9.81,0,0,0,3,3,9.47,9.47,0,0,0,1.23,5.45,10,10,0,0,0,.29,8.32a18.92,18.92,0,0,0-.27,3c0,.46,0,.93,0,1.39V47.53c0,.47,0,.92,0,1.39a19.15,19.15,0,0,0,.27,3,10,10,0,0,0,.94,2.86A9.3,9.3,0,0,0,3,57.24,9.65,9.65,0,0,0,5.43,59a10,10,0,0,0,2.86,1,20.28,20.28,0,0,0,3,.27H168.51a20.15,20.15,0,0,0,3-.27,10,10,0,0,0,2.87-1,9.73,9.73,0,0,0,4.21-4.21,10.31,10.31,0,0,0,.93-2.86,21.88,21.88,0,0,0,.28-3V47.53c0-.54,0-1.09,0-1.64V14.36c0-.55,0-1.1,0-1.64V11.33a21.59,21.59,0,0,0-.28-3,10.26,10.26,0,0,0-.93-2.87,9.75,9.75,0,0,0-4.21-4.22,10.28,10.28,0,0,0-2.87-.94,18.9,18.9,0,0,0-3-.27l-1.39,0Z"/><path d="M12.72,59.32a1.7,1.7,0,0,0-1.36-.47,18.94,18.94,0,0,1-2.82-.25,8.88,8.88,0,0,1-2.49-.82,8.47,8.47,0,0,1-3.64-3.63,8.82,8.82,0,0,1-.81-2.5,17.7,17.7,0,0,1-.25-2.82c0-.31,0-1.37,0-1.37V12.7s0-1,0-1.34a19.05,19.05,0,0,1,.24-2.82A8.84,8.84,0,0,1,2.41,6a7.92,7.92,0,0,1,1.53-2.1A8.41,8.41,0,0,1,6.05,2.4a8.67,8.67,0,0,1,2.49-.82A10.84,10.84,0,0,0,11.36.93l1.36.46h156a13.79,13.79,0,0,1,2.8.19A9.12,9.12,0,0,1,174,2.4a8.39,8.39,0,0,1,3.64,3.65,8.57,8.57,0,0,1,.8,2.48,18,18,0,0,1,.26,2.84c0,.42,0,.88,0,1.33s.17,1.65.17,1.65V45.83s-.16,1.08-.17,1.62,0,.94,0,1.4a18.55,18.55,0,0,1-.25,2.79,8.6,8.6,0,0,1-.82,2.51,8.23,8.23,0,0,1-1.52,2.09A8.41,8.41,0,0,1,174,57.78a8.9,8.9,0,0,1-2.51.82,18.93,18.93,0,0,1-2.81.25h-1.35l-1.63.46Z"/><g id="_Group_" data-name=" Group "><g id="_Group_2" data-name=" Group 2"><g id="_Group_3" data-name=" Group 3"><path id="_Path_" data-name=" Path " class="cls-2" d="M37.28,30.54a7.43,7.43,0,0,1,3.54-6.24,7.6,7.6,0,0,0-6-3.25c-2.53-.27-5,1.51-6.27,1.51s-3.29-1.48-5.43-1.44a8,8,0,0,0-6.73,4.1c-2.91,5-.74,12.45,2.05,16.52,1.4,2,3,4.22,5.16,4.14s2.87-1.33,5.38-1.33,3.23,1.33,5.41,1.28,3.65-2,5-4a16.52,16.52,0,0,0,2.29-4.65A7.18,7.18,0,0,1,37.28,30.54Z"/><path id="_Path_2" data-name=" Path 2" class="cls-2" d="M33.17,18.37a7.3,7.3,0,0,0,1.67-5.25A7.46,7.46,0,0,0,30,15.62a6.93,6.93,0,0,0-1.72,5.05A6.18,6.18,0,0,0,33.17,18.37Z"/></g></g><path class="cls-2" d="M63.69,40.78H56.5l-1.73,5.1h-2.9l6.69-18.54h3.11l6.7,18.54h-3Zm-6.47-2.31H63l-2.84-8.35h-.08Z"/><path class="cls-2" d="M83.05,38.92c0,4.3-2.3,7.07-5.78,7.07a4.69,4.69,0,0,1-4.35-2.43h-.16v6.95H70V32.44h2.78v1.85h0a4.92,4.92,0,0,1,4.41-2.44C80.74,31.85,83.05,34.62,83.05,38.92Zm-2.93.15c0-2.76-1.42-4.57-3.6-4.57S73,36.35,73,39.07s1.44,4.58,3.57,4.58S80.12,41.85,80.12,39.07Z"/><path class="cls-2" d="M98.35,38.92c0,4.3-2.31,7.07-5.78,7.07a4.7,4.7,0,0,1-4.36-2.43h-.16v6.95H85.27V32.44h2.78v1.85h0a4.93,4.93,0,0,1,4.42-2.44C96,31.85,98.35,34.62,98.35,38.92Zm-3.23.15c0-2.76-1.43-4.57-3.6-4.57s-3.58,1.85-3.58,4.57,1.44,4.58,3.58,4.58,3.6-1.8,3.6-4.58Z"/><path class="cls-2" d="M107.9,40.78c.21,1.85,2,3.07,4.46,3.07s4-1.22,4-2.89c0-1.44-1-2.31-3.44-2.91l-2.42-.58c-3.42-.83-5-2.43-5-5,0-3.22,2.8-5.43,6.79-5.43s6.64,2.21,6.73,5.43h-2.81c-.17-1.86-1.71-3-4-3s-3.79,1.14-3.79,2.8c0,1.32,1,2.09,3.39,2.69l2,.5c3.83.91,5.42,2.45,5.42,5.18,0,3.49-2.78,5.67-7.2,5.67-4.14,0-6.94-2.13-7.12-5.51Z"/><path class="cls-2" d="M125.13,29.2V32h2.78v2.31h-2.78V41.8c0,1.17.56,1.71,1.79,1.71a8.22,8.22,0,0,0,1-.06v2.44a8.67,8.67,0,0,1-1.61.13c-2.84,0-4-1.07-4-3.8V34.29h-1.86V32h2.32V29.2Z"/><path class="cls-2" d="M129.49,39.07c0-4.28,2.53-7,6.47-7s6.46,2.7,6.46,7-2.5,7-6.46,7S129.49,43.37,129.49,39.07Zm10.08,0c0-2.94-1.35-4.67-3.62-4.67s-3.61,1.75-3.61,4.67,1.35,4.68,3.61,4.68,3.62-1.73,3.62-4.68Z"/><path class="cls-2" d="M144.59,32.44h2.78v2.32h-.06a3.25,3.25,0,0,1,3.27-2.46,4.34,4.34,0,0,1,1,.1V35a3.78,3.78,0,0,0-1.25-.17,2.8,2.8,0,0,0-2.93,2.7,3.09,3.09,0,0,0,0,.43v7.9h-2.78Z"/><path class="cls-2" d="M164.83,42.17c-.39,2.72-2.82,4.58-5.94,4.58-4,0-6.49-2.91-6.49-7.59s2.5-7.73,6.37-7.73S165,34.27,165,38.8v1.06h-9.73V40a3.82,3.82,0,0,0,3.26,4.22,3.39,3.39,0,0,0,.45,0,3.11,3.11,0,0,0,3.18-2.11ZM155.25,38h6.81A3.28,3.28,0,0,0,159,34.55h-.25A3.46,3.46,0,0,0,155.25,38Z"/></g><g id="_Group_4" data-name=" Group 4"><path class="cls-2" d="M56.94,13.44a3.9,3.9,0,0,1,4.16,3.61,4,4,0,0,1,0,.77c0,2.81-1.52,4.43-4.14,4.43H53.76V13.44Zm-1.79,7.41h1.7a2.84,2.84,0,0,0,3-2.66,2.89,2.89,0,0,0,0-.59,2.85,2.85,0,0,0-2.44-3.21,2.51,2.51,0,0,0-.55,0h-1.7Z"/><path class="cls-2" d="M62.72,18.72a3.21,3.21,0,1,1,6.39-.61,3.11,3.11,0,0,1,0,.61,3.21,3.21,0,0,1-6.39.63A3.32,3.32,0,0,1,62.72,18.72Zm5,0c0-1.47-.66-2.32-1.81-2.32s-1.82.85-1.82,2.32.65,2.34,1.82,2.34,1.81-.86,1.81-2.34Z"/><path class="cls-2" d="M77.58,22.25H76.25l-1.43-5.1h-.11l-1.43,5.1H72l-1.92-7h1.43l1.19,5.1h.1l1.38-5.1h1.26l1.37,5.1h.11l1.19-5.1h1.41Z"/><path class="cls-2" d="M81.1,15.29H82v1.39h.1a2.12,2.12,0,0,1,2.1-1.17,2.23,2.23,0,0,1,2.45,2,1.93,1.93,0,0,1,0,.48v4.28h-.92V18.2c0-1.09-.5-1.63-1.54-1.63a1.61,1.61,0,0,0-1.72,1.48,1.85,1.85,0,0,0,0,.23v4H81.1Z"/><path class="cls-2" d="M89,13h1.39v9.27H89Z"/><path class="cls-2" d="M92.11,18.72a3.21,3.21,0,1,1,6.39-.61,3.11,3.11,0,0,1,0,.61,3.21,3.21,0,1,1-6.39,0Zm5,0c0-1.47-.66-2.32-1.82-2.32s-1.82.85-1.82,2.32.66,2.34,1.82,2.34S97.13,20.2,97.13,18.72Z"/><path class="cls-2" d="M99.91,20.2c0-1.22.91-1.93,2.52-2l2.31-.1v-.59s-.95-1.12-1.86-1.12c-.75,0-1.27.28-1.41.79h-1.3c.14-1.2,1.23-1.94,2.77-1.94,1.7,0,2.66.84,2.72,2.27v4.77h-1.39v-.93h-.07a2.51,2.51,0,0,1-2,.9,2,2,0,0,1-2.25-1.82A1.34,1.34,0,0,1,99.91,20.2Zm4.36-.58v-.57l-1.65.11c-.93.06-1.36.38-1.36,1s.53,1,1.26,1a1.6,1.6,0,0,0,1.75-1.43Z"/><path class="cls-2" d="M107.1,18.53c0-2.14,1.1-3.5,2.81-3.5A2.24,2.24,0,0,1,112,16.22h.15V13h1.39v9.27h-1.39v-1.4h-.1A2.38,2.38,0,0,1,109.91,22C108.19,22,107.1,20.68,107.1,18.53Zm1.63.19c0,1.44.68,2.3,1.81,2.3s1.83-.87,1.83-2.29-.71-2.3-1.83-2.3-1.81.87-1.81,2.29Z"/><path class="cls-2" d="M119.21,18.72a3.21,3.21,0,1,1,6.39-.61,3.11,3.11,0,0,1,0,.61,3.21,3.21,0,1,1-6.39.63A3.31,3.31,0,0,1,119.21,18.72Zm5,0c0-1.47-.66-2.32-1.82-2.32s-1.82.85-1.82,2.32.66,2.34,1.82,2.34S124.23,20.2,124.23,18.72Z"/><path class="cls-2" d="M127.44,15.29h.93v1.39h.11a2.11,2.11,0,0,1,2.09-1.17,2.23,2.23,0,0,1,2.45,2,1.93,1.93,0,0,1,0,.48v4.28h-.93V18.2c0-1.09-.5-1.63-1.54-1.63a1.6,1.6,0,0,0-1.71,1.48,1.76,1.76,0,0,0,0,.23v4h-1.39Z"/><path class="cls-2" d="M140.88,13.44v1.85h1.39v.93h-1.39V20c-.18.71.12,1,.78,1l.61,0v1.1a3.38,3.38,0,0,1-.72.07c-1.47,0-2.06-.52-2.06-1.81V16.22h-.92v-.93h.92V13.44Z"/><path class="cls-2" d="M144.13,13h.93v3.7h.1a2.17,2.17,0,0,1,2.13-1.18,2.25,2.25,0,0,1,2.42,2.06,2.88,2.88,0,0,1,0,.41v4.28h-.93V18.2c0-1.08-.52-1.63-1.49-1.63A1.61,1.61,0,0,0,145.52,18a1.22,1.22,0,0,0,0,.27v4h-1.39Z"/><path class="cls-2" d="M157.62,20.39a2.77,2.77,0,0,1-2.93,1.85,3.07,3.07,0,0,1-3.16-3,4.07,4.07,0,0,1,0-.5,3.12,3.12,0,0,1,2.68-3.51,3.25,3.25,0,0,1,.44,0c1.89,0,3,1.29,2.89,3.41V19h-4.64v.16a1.78,1.78,0,0,0,1.62,1.94h.17a1.78,1.78,0,0,0,1.62-.72Zm-4.69-2.32h3.43a1.64,1.64,0,0,0-1.51-1.75h-.16A1.74,1.74,0,0,0,152.93,18v0Z"/></g></g></g></svg>