<svg xmlns="http://www.w3.org/2000/svg" viewBox="0 0 495.78 424.94"><defs><style>.cls-1,.cls-25{fill:#f9ab93;}.cls-2{fill:#e7c2e7;}.cls-3{opacity:0.3;}.cls-4{fill:#e28874;}.cls-5{fill:#ffd4b8;}.cls-6{fill:#b680ba;}.cls-7{fill:#493e38;}.cls-8{fill:#fff;}.cls-9{fill:#f4ccb5;}.cls-10{opacity:0.8;}.cls-11{fill:#a863aa;}.cls-12{fill:#332c29;}.cls-13,.cls-48{fill:#d385d2;}.cls-14{fill:#dceae5;}.cls-14,.cls-30{opacity:0.84;}.cls-15{fill:#f75959;}.cls-16{fill:#ed4040;}.cls-17{opacity:0.81;}.cls-18{fill:#dd5252;}.cls-19{opacity:0.1;}.cls-20{fill:#6fa38e;}.cls-21{fill:#b06d5d;}.cls-22{fill:#a06255;}.cls-23{opacity:0.7;}.cls-24{fill:#ffcdc0;}.cls-25,.cls-26,.cls-48{opacity:0.5;}.cls-27{opacity:0.6;}.cls-28{fill:#864789;}.cls-29{opacity:0.33;}.cls-31{fill:#b6d8cd;}.cls-32{fill:#f99958;}.cls-33{fill:#eac2ac;}.cls-34{fill:#fcd888;}.cls-35{fill:#ddb7a4;}.cls-36{fill:#939799;}.cls-37{fill:#f28338;}.cls-38{fill:#efc97d;}.cls-39{opacity:0.58;}.cls-40{fill:#dd7731;}.cls-41{opacity:0.2;}.cls-42{fill:#848789;}.cls-43{fill:#f4dbd4;opacity:0.9;}.cls-44{fill:#999;}.cls-45{fill:#f5b400;}.cls-46{fill:#898989;}.cls-47{opacity:0.43;}.cls-49{fill:#664b3a;}.cls-50{fill:#dec8ae;}.cls-51{fill:#f7f1e6;}.cls-52{fill:#e74424;}.cls-53{fill:#3a312d;}.cls-54{fill:#ede6dd;}</style></defs><title>feature3</title><g id="Layer_2" data-name="Layer 2"><g id="Layer_1-2" data-name="Layer 1"><circle class="cls-1" cx="414.13" cy="101.35" r="55.75"/><path class="cls-2" d="M368.59,133.5a55.23,55.23,0,0,1-3-4.79l-23.84,23.85a9.94,9.94,0,0,0-11.83,15.73h0a9.93,9.93,0,0,0,15.73-11.82Zm-28.52,30.89a4.55,4.55,0,0,1-6.27,0h0a4.43,4.43,0,1,1,6.27-6.27A4.45,4.45,0,0,1,340.07,164.39Z"/><path class="cls-2" d="M361.48,83,322,82.52h0a2.73,2.73,0,0,0,0,5.46l38,.49A55.68,55.68,0,0,1,361.48,83Z"/><g class="cls-3"><path class="cls-4" d="M421.82,46.27a55.76,55.76,0,0,1-21.37,109.28A55.76,55.76,0,1,0,421.82,46.27Z"/></g><path class="cls-5" d="M435.19,84.86,435,82.77h-2.1c-11.57,0-25.17-8.69-25.31-8.78l-2.28-1.48L404.26,75c0,.08-3.46,7.76-8.91,7.76h-2.1l-.18,2.09c-.05.6-.08,1.22-.08,1.82a21.14,21.14,0,0,0,42.28,0C435.27,86.08,435.24,85.46,435.19,84.86Z"/><polygon class="cls-5" points="419.19 104.98 419.19 104.98 409.07 104.98 409.07 104.98 406.79 104.98 406.79 113.51 421.48 113.51 421.48 104.98 419.19 104.98"/><path class="cls-6" d="M388.85,140.2V123.73a13.08,13.08,0,0,1,13.08-13.08h24.4a13.08,13.08,0,0,1,13.08,13.08V140.2a2.43,2.43,0,0,1-2.43,2.43H391.29A2.43,2.43,0,0,1,388.85,140.2Z"/><path class="cls-7" d="M414.17,61.32h-.11c-5.75,0-11,1.67-14.68,4.66a16.93,16.93,0,0,0-6.32,13.69v7.67h2.29c6.07,0,10-5.12,11.91-8.23,4.54,2.61,15.51,8.23,25.66,8.23h2.28V79.47C435.2,68.61,426.75,61.32,414.17,61.32Z"/><path class="cls-8" d="M428.22,130.05a3.69,3.69,0,0,1-3.68-3.69v-6.13h9.82v6.13a3.69,3.69,0,0,1-3.69,3.69Z"/><path class="cls-9" d="M417.48,107.51v6h4v-7.05a21.14,21.14,0,0,0,13.79-19.78c0-.6,0-1.22-.07-1.82L435,82.77h-2.1l-1.43.09.23,2c.05.61-.44,1.2-.44,1.8A21.09,21.09,0,0,1,420.63,105h-3.15v1.49"/><g class="cls-10"><path class="cls-11" d="M426.32,110.65h-4a13.08,13.08,0,0,1,13.08,13.08V140.2a2.42,2.42,0,0,1-2.43,2.43h4a2.42,2.42,0,0,0,2.43-2.43V123.73A13.08,13.08,0,0,0,426.32,110.65Z"/></g><path class="cls-12" d="M414.16,61.32h-.11c-.63,0-1.25,0-1.87.07,11.46.74,19,7.81,19,18.08v7.81c.57,0,1.13.06,1.7.06h2.29V79.47C435.2,68.61,426.74,61.32,414.16,61.32Z"/><g class="cls-3"><path class="cls-13" d="M430.36,120.23v6.13a3.68,3.68,0,0,1-2.92,3.6,4,4,0,0,0,.78.09h2.44a3.69,3.69,0,0,0,3.69-3.69v-6.13Z"/></g><path class="cls-8" d="M414.13,126.79l-10-16.14H424.1Z"/><g class="cls-3"><polygon class="cls-13" points="424.09 110.65 420.1 110.65 412.13 123.56 414.13 126.79 424.09 110.65"/></g><circle class="cls-14" cx="440.03" cy="331.05" r="55.75"/><path class="cls-15" d="M417.24,368.44V354.85A11.74,11.74,0,0,1,429,343.11h0a1.81,1.81,0,0,1,1.3.54l8.45,8.44a1.83,1.83,0,0,0,2.6,0l8.44-8.44a1.81,1.81,0,0,1,1.3-.54h1.84a9.91,9.91,0,0,1,9.9,9.9l0,15.32a1.83,1.83,0,0,1-1.83,1.83l-41.85.12A1.84,1.84,0,0,1,417.24,368.44Z"/><polygon class="cls-5" points="445.04 343.11 445.04 336.83 443.51 336.83 441.99 336.83 438.06 336.83 436.54 336.83 435.01 336.83 435.01 343.11 425.42 343.11 440.02 357.71 454.63 343.11 445.04 343.11"/><path class="cls-16" d="M454.91,365l-.3,0a1.52,1.52,0,0,1-.28-.09,1.3,1.3,0,0,1-.26-.14,1.12,1.12,0,0,1-.24-.19,2.11,2.11,0,0,1-.19-.23,2.15,2.15,0,0,1-.14-.26,1.61,1.61,0,0,1-.09-.29,1.51,1.51,0,0,1,0-.3,1.46,1.46,0,0,1,.68-1.27l.26-.14a1.45,1.45,0,0,1,.88-.09,1.61,1.61,0,0,1,.29.09l.26.14a2.11,2.11,0,0,1,.23.19,1.52,1.52,0,0,1,.42,1.38,1.61,1.61,0,0,1-.09.29,1.3,1.3,0,0,1-.14.26,1.57,1.57,0,0,1-.42.42,1.3,1.3,0,0,1-.26.14,1.61,1.61,0,0,1-.29.09Z"/><path class="cls-16" d="M449.28,365H425.14a1.53,1.53,0,1,1,0-3.06h24.14a1.53,1.53,0,0,1,0,3.06Z"/><g class="cls-17"><path class="cls-18" d="M460.94,370.29a1.85,1.85,0,0,0,1.83-1.84l0-15.37a9.94,9.94,0,0,0-9.93-9.93H451a1.5,1.5,0,0,0-.29.06,9.94,9.94,0,0,1,8.87,9.87l0,15.37a1.85,1.85,0,0,1-1.84,1.84"/></g><g class="cls-17"><path class="cls-18" d="M449.27,362.06h-3.19a1.54,1.54,0,0,1,0,3.07h3.19a1.54,1.54,0,0,0,0-3.07Z"/></g><g class="cls-19"><path class="cls-20" d="M448.07,275.89A55.75,55.75,0,0,1,426,385a55.75,55.75,0,1,0,22.07-109.13Z"/></g><polygon class="cls-9" points="451.19 343.15 450.41 343.15 437.94 355.63 440.11 357.8 454.75 343.15 451.19 343.15"/><path class="cls-5" d="M457,320.7a28,28,0,0,0-6.33-14.48l-1.19,1H430.57l-1.19-1a28,28,0,0,0-6.33,14.48,27.63,27.63,0,0,0,1.59,12.55l.1.28.2.22a20.21,20.21,0,0,0,30.17,0l.2-.22.1-.28A27.63,27.63,0,0,0,457,320.7Z"/><path class="cls-9" d="M440.8,343.15h4.34v-3.31a20.32,20.32,0,0,1-4.34.66Z"/><path class="cls-9" d="M457,320.67a28.22,28.22,0,0,0-6.35-14.53l-1.19,1h-1.28a26.65,26.65,0,0,1,4,26.16l-.1.27-.2.23a20.15,20.15,0,0,1-6.77,4.94v1.14a20.3,20.3,0,0,0,10-6.08l.2-.23.1-.27A27.67,27.67,0,0,0,457,320.67Z"/><path class="cls-9" d="M440.8,340.1v.4a20.32,20.32,0,0,0,4.34-.66V338.7A20.55,20.55,0,0,1,440.8,340.1Z"/><path class="cls-21" d="M440,291.82c-22.08,0-27.45,16.53-26.52,35s19.34,19.67,19.34,19.67-19.34-19.67-2.94-40.12c0,0-2.74,4.71-2.59,8.65,0,0,3.43-1.18,12.71-1.18S452.74,315,452.74,315c.15-3.94-2.59-8.65-2.59-8.65,16.4,20.45-2.94,40.12-2.94,40.12s18.41-1.24,19.34-19.67S462.11,291.82,440,291.82Z"/><path class="cls-22" d="M439.94,291.69c-.56,0-1.06.06-1.6.08,20.78.8,25.92,17,25,35-.66,13.08-10.09,17.53-15.56,19-.4.47-.66.73-.66.73s18.48-1.25,19.41-19.74S462.09,291.69,439.94,291.69Z"/><path class="cls-2" d="M385.07,340.44l-31.16-9.58a10,10,0,0,0-19.39-4.15A9.94,9.94,0,0,0,351.73,336l34.78,10.7A55.31,55.31,0,0,1,385.07,340.44ZM348.26,331a4.44,4.44,0,1,1-8.47-2.66,4.44,4.44,0,0,1,8.47,2.66Z"/><path class="cls-2" d="M442.39,275.35l.74-56.06a2.76,2.76,0,0,0-2.73-2.8h0a2.77,2.77,0,0,0-2.77,2.73l-.74,56.17C438.72,275.29,440.57,275.27,442.39,275.35Z"/><g class="cls-23"><path class="cls-1" d="M296.49,336.59c-3.16,3.91-7.69,6.29-7.82,11.64q0,1.41,0,2.85a4.84,4.84,0,0,1-4.81,5H241.7c-.78-3.23-1.43-6.11-1.43-6.11s-8.82-17-9.1-23a42.6,42.6,0,0,1,14.6-34.23c6-5.12,8-12.57,7.8-20.22a48.74,48.74,0,0,1-7.19-14.84c-2.21-6.9-5.87-16.5-3.46-23.59a50.3,50.3,0,0,1,9.89-17.47c4.9-5.34,3.69-13.93,2.63-20.42,2.72,4.25,6.44,8.71,11.54,10,4.72.89,9.31,1.33,14,2.42a10.56,10.56,0,0,0-5,6.58,11.52,11.52,0,0,0,2.74,10.26c2.64,2.74,6,4.68,8.47,7.5a96.13,96.13,0,0,0,9,8.78c1.67,1.45,7.08,4.56,6.79,7.26a20.38,20.38,0,0,1-4.45,11.14c-1.55,1.93-7.29,4.78-7.65,7.06-.25,1.62,5.19,5,6.39,6.26a69.82,69.82,0,0,1,8.12,9.49,34.83,34.83,0,0,1,4.72,29.72C307.51,321.56,302.28,329.41,296.49,336.59Z"/></g><path class="cls-24" d="M245.38,192.06a21.37,21.37,0,0,1,.68-22.82,23,23,0,0,1,3.65-4.33,27.85,27.85,0,0,1,27.44-6c2.48.86,5.1,3.21,7.18,4.78,3.11,2.34,3.2,4.78,4.1,8.26.84,3.28,2.27,6.36,3.35,9.56,1.49,4.44.9,9.74-.34,14.15-1,3.47-1.22,9.42-4.14,12-3.14,2.79-10.14,2.53-14.14,2.69-4.64.18-8.72-2-12.78-4.2A39.28,39.28,0,0,1,245.38,192.06Z"/><path class="cls-25" d="M291.78,181.55c-1.08-3.2-2.51-6.28-3.35-9.56-.9-3.48-1-5.92-4.1-8.26-2.08-1.57-4.7-3.92-7.18-4.78a26.07,26.07,0,0,0-10.44-1.31,25.22,25.22,0,0,1,6.55,1.31c2.48.86,5.1,3.21,7.18,4.78,3.11,2.34,3.2,4.78,4.1,8.26.84,3.28,2.27,6.36,3.34,9.56,1.5,4.44.91,9.74-.33,14.15-1,3.47-1.23,9.42-4.14,12a8.92,8.92,0,0,1-3.71,1.78,29.89,29.89,0,0,1-6,.77l-.08.13a20.07,20.07,0,0,0-2.43,4.82,11.5,11.5,0,0,0,2.74,10.26,64.48,64.48,0,0,0,8.24,7l4.69.07c-2-2.29-6.41-5.19-8.14-7.11a11.82,11.82,0,0,1-2.74-10.26,10.49,10.49,0,0,1,2.95-5c3.21-.23,6.51-.79,8.41-2.48,2.92-2.58,3.17-8.53,4.14-12C292.68,191.29,293.27,186,291.78,181.55Z"/><path class="cls-24" d="M363.72,230.45c-.74-.51-2.32-.28-3.14-.19a20,20,0,0,0-3.93.86,18,18,0,0,1-3.92,1.06c.27-1.9,7.15-2.82,8.68-4.19,1.2-1.08,1.07-2.15-1.13-2a23.79,23.79,0,0,0-3.42.77l-5.43,1.2c-4.91,1.09-3.82,10.49-5,13.7-1.28,3.53-6,6.61-8.69,9A54.12,54.12,0,0,1,327.71,258a78.86,78.86,0,0,0-21.45,17.52c-5.1-8.48-8.3-17.74-12.36-27.22-2.54-5.94-6.48-11.28-13.14-13.9-3.66-1.43-6.63-5.24-10.39-4.35l-.54.13c-.35.09-2,.63-3.81,1.14-2.27.64-4.73,1.23-4.93.78.2.52,11.11,28.37,13.25,27.47.68-.29,1.92.78,3.44,2.6,4.84,5.82,12.49,19.37,13.65,21.22.09.14.18.28.26.42,2.34,3.62,4.51,5.53,6.74,6.24a2.8,2.8,0,0,0,.25.74c.13-.19.27-.38.4-.58h0c-.13.21-.27.4-.4.62-1.35,2.27,6.25,2.95,7,2.8,3.26-.63,6-2.65,8.77-4.2A72.34,72.34,0,0,0,334.3,272.9c4.81-5.58,8.9-11.83,14-17.14,2.31-2.39,5.58-4.12,7.63-6.55s1.59-6.07,1.77-9.16c.06-1.09-.33-2.25-.35-3.23a1.54,1.54,0,0,1,.71-.94c.79-.47,4,.32,4.67-.29s.38-1.57,1.21-2.16a3.21,3.21,0,0,0,1.12-1C365.52,231.64,364.29,230.84,363.72,230.45Z"/><g class="cls-26"><path class="cls-1" d="M363.72,230.45c-.74-.51-2.32-.28-3.14-.19-.44.05-.88.14-1.31.22.58.4,1.75,1.18,1.33,2a3.21,3.21,0,0,1-1.12,1c-.83.59-.5,1.53-1.21,2.16s-3.88-.18-4.67.29a1.54,1.54,0,0,0-.71.94c0,1,.41,2.14.35,3.23-.18,3.09.32,6.68-1.77,9.16s-5.32,4.16-7.63,6.55c-5.13,5.31-9.22,11.56-14,17.14A72.34,72.34,0,0,1,310,289.43c-2.46,1.36-4.84,3.08-7.59,3.91a15.3,15.3,0,0,0,3.31.29c3.26-.63,6-2.65,8.77-4.2A72.34,72.34,0,0,0,334.3,272.9c4.81-5.58,8.9-11.83,14-17.14,2.31-2.39,5.58-4.12,7.63-6.55s1.59-6.07,1.77-9.16c.06-1.09-.33-2.25-.35-3.23a1.54,1.54,0,0,1,.71-.94c.79-.47,4,.32,4.67-.29s.38-1.57,1.21-2.16a3.21,3.21,0,0,0,1.12-1C365.52,231.64,364.29,230.84,363.72,230.45Z"/></g><path class="cls-11" d="M296.49,336.59c-5.05,6.26-7.32,11-7.64,16a3.72,3.72,0,0,1-3.74,3.44H231.89a3.77,3.77,0,0,1-3.77-3.77c0-9.27.11-19.36.26-21.19,1.1-13.37,4.6-26.34,13.12-37,.83-1,1.59-2,2.29-3,9.15-12.35,7.63-17.79,2.59-33.52-2.21-6.9-5.87-16.5-3.46-23.59a51.94,51.94,0,0,1,8.74-16.14,16.64,16.64,0,0,1,1.81.37c6.11,1.63,11.52,5.53,16.94,8.64,4.49,2.56,9.54,5.45,14.85,5.55.38,0,.88,0,1.42,0,.15.16.32.29.46.45a96.13,96.13,0,0,0,9,8.78c1.67,1.45,7.08,4.56,6.79,7.26a20.38,20.38,0,0,1-4.45,11.14c-1.55,1.93-7.29,4.78-7.65,7.06-.25,1.62,5.19,5,6.39,6.26a69.82,69.82,0,0,1,8.12,9.49,34.83,34.83,0,0,1,4.72,29.72C307.51,321.56,302.28,329.41,296.49,336.59Z"/><path class="cls-8" d="M296.18,287.91l-.2-.2a8.5,8.5,0,0,0-12,0,8.5,8.5,0,0,0-12,0l-.19.2a8.51,8.51,0,0,0,0,12L284,312.15h0l12.21-12.22A8.5,8.5,0,0,0,296.18,287.91Z"/><g class="cls-27"><path class="cls-13" d="M291.05,287.91l-.19-.2a8.6,8.6,0,0,0-3.45-2.09,8.51,8.51,0,0,1,8.58,2.09l.2.2a8.5,8.5,0,0,1,0,12L284,312.15h0l-2.57-2.57,9.65-9.65A8.5,8.5,0,0,0,291.05,287.91Z"/></g><g class="cls-26"><path class="cls-28" d="M281.36,231.94c.15.15,1.25.81,1.39,1a96.13,96.13,0,0,0,9,8.78c1.67,1.45,7.08,4.56,6.79,7.26a20.32,20.32,0,0,1-4.45,11.13c-1.55,1.94-7.29,4.79-7.65,7.07-.25,1.62,5.19,5,6.39,6.26A69.82,69.82,0,0,1,301,282.9a34.83,34.83,0,0,1,4.72,29.72c-2.59,8.94-7.82,16.79-13.61,24-5.05,6.26-7.32,11-7.64,16a3.72,3.72,0,0,1-3.74,3.44h4.39a3.72,3.72,0,0,0,3.74-3.44c.32-5,2.59-9.78,7.64-16,5.79-7.18,11-15,13.61-24a34.83,34.83,0,0,0-4.72-29.72,69.82,69.82,0,0,0-8.12-9.49c-1.2-1.25-6.64-4.64-6.39-6.26.36-2.28,6.1-5.13,7.65-7.07A20.32,20.32,0,0,0,303,249c.29-2.7-5.12-5.81-6.79-7.26a96.13,96.13,0,0,1-9-8.78c-.14-.16-.31-.29-.46-.45a13.6,13.6,0,0,1-1.42,0A18.85,18.85,0,0,1,281.36,231.94Z"/></g><path class="cls-24" d="M287.17,334.12c2.26,1.64,5.89-.82,7.88-1.79,1.7-.82,2.47-1.12,3.23-3,.47-1.11,2.71-9.32,4.87-7.31,1,.95-.24,4.45-.55,5.54-.67,2.33-2.12,6.95-2.12,6.95s-3.54,3.31-5.31,4.7c-1.23,1-2.28,2.41-3.65,3.13-3.31,1.75-7.56.69-11.15.71l-1.83,0c-2.53,0-4.76.25-7.13-.75a28.76,28.76,0,0,1-7.69-4.87L256.16,331l-9.58-8.17q-7.31-7.85-14.3-16c-2.85-3.35-6.33-6.84-8.52-10.68-2.81-4.95.1-12.07,2.26-17,4.8-11.13,9.61-22.13,15.75-32.69,4.35-7.5,8.91-14.39,17.57-16.7,10.32-2.77,15.21,5.32,14,14.31-.08.56-.19,1.13-.31,1.7-1.09,4.84-3.53,8.23-6.89,11.71-6.2,6.44-11.41,13.66-17,20.62-1.7,2.12-8.89,8.43-8.57,11.18,3.56,8.65,9.7,16.39,15.44,23.62,3.67,4.63,6.39,10,10.54,14.21a16.15,16.15,0,0,0,7.23,4.62,3.69,3.69,0,0,0,2.92-.32,8,8,0,0,0,1.9-1.67,14.12,14.12,0,0,1,5.57-3.29c2.3-.91,4.48-2.36,6.9-3,1.07-.3,3.11-.9,3.79.5,1.07,2.19-4.13,3.29-5.41,4.08-1.48.91-4.08,2.69-3,5.09a2.48,2.48,0,0,0,.79,1"/><g class="cls-26"><path class="cls-1" d="M268.8,244.07c-.08.57-.19,1.13-.31,1.7-1.09,4.84-3.53,8.23-6.89,11.72-6.21,6.44-11.41,13.65-17,20.61-1.7,2.12-8.89,8.43-8.56,11.18,3.55,8.65,9.69,16.39,15.43,23.63,3.67,4.62,6.39,10,10.54,14.2a16.07,16.07,0,0,0,7.23,4.62,3.65,3.65,0,0,0,2.92-.32c.08,0,.15-.12.23-.17a17.29,17.29,0,0,1-5.89-4.13c-4.15-4.22-6.87-9.58-10.54-14.2-5.74-7.24-11.88-15-15.43-23.63-.33-2.75,6.86-9.06,8.56-11.18,5.6-7,10.81-14.17,17-20.61,3.36-3.49,5.8-6.88,6.89-11.72.12-.57.23-1.13.31-1.7,1.19-8.53-3.15-16.22-12.41-14.64C267,230.64,269.78,237.07,268.8,244.07Z"/><path class="cls-1" d="M303.15,322c-2.16-2-4.4,6.2-4.87,7.32a4.38,4.38,0,0,1-1.26,1.86c-.54,1.76-1,3.32-1,3.32s-3.54,3.31-5.31,4.69c-1.23,1-2.28,2.41-3.65,3.14a8.87,8.87,0,0,1-3.08.88c2.62.19,5.32.3,7.57-.88,1.37-.73,2.42-2.18,3.65-3.14,1.77-1.38,5.31-4.69,5.31-4.69s1.45-4.63,2.12-7C302.91,326.49,304.19,323,303.15,322Z"/></g><path class="cls-7" d="M230.78,225.85c1.15-3.42,2.49-6.88,3.88-10.53,3.51-9.28,4.88-19.18,5.49-29,.6-9.69,0-15.75,6.67-23.31.23-.26.46-.52.7-.77a25.78,25.78,0,0,1,24.74-7.65c3.56.84,7.13,1.86,10.14,4,2.71,1.93,3.42,5.87,4.67,8.82l-6.55-4.56c.12.08-4.93,4-5.25,4.31a31.62,31.62,0,0,0-6.31,7.7c-5.32,9.17-3.3,19.15-3.23,29.1A76.77,76.77,0,0,1,264,219.71c-1.86,8.67-6.23,16.65-8.87,25.07a40.6,40.6,0,0,0,.36,25.39c-.34-1-1.54-2-2.09-2.94a25.21,25.21,0,0,1-1.87-3.75,26.08,26.08,0,0,1-1.77-8.12A30.17,30.17,0,0,1,254,239.31,67.81,67.81,0,0,0,260.16,224c2.19-8.09,4.25-18.73,1.11-27,1.27,12,0,29.67-12.06,49.11-3.8,7.47-19.66,35.22-4.62,41a31.37,31.37,0,0,1-17.47-16.87C220.74,255.09,225.9,240.24,230.78,225.85Z"/><path class="cls-12" d="M244.88,243.41c-3.14,6.19-14.15,25.59-11,36.57a31.14,31.14,0,0,0,10.81,7.07c-15-5.75.82-33.5,4.62-41,11.88-19.18,13.28-36.66,12.11-48.61l-3.78-5.91C259,204.2,257.6,222.89,244.88,243.41Z"/><path class="cls-12" d="M282.84,158.9l-.83-.63a20.38,20.38,0,0,0-3.08-1.67c-1.14,1-4.92,4-5.2,4.22a34.06,34.06,0,0,0-7,8c-5.54,9.53-4.47,19.31-4.38,29.65l3.49,5.45c-.07-9.95-2.09-19.93,3.23-29.1a31.62,31.62,0,0,1,6.31-7.7c.32-.28,5.37-4.23,5.25-4.31l6.55,4.56C286,164.58,285.23,160.91,282.84,158.9Z"/><path class="cls-12" d="M261.39,197.47l.93,1.45c0-.14,0-.29,0-.43l-1-1.52C261.36,197.13,261.37,197.3,261.39,197.47Z"/><path class="cls-13" d="M257.72,175.83c7.93,13.73,16.9-1.82,1.06-1.82,15.84,0,6.87-15.55-1.06-1.83,7.93-13.72-10-13.72-2.1,0-7.92-13.72-16.9,1.83-1.05,1.83-15.85,0-6.87,15.55,1.05,1.82C247.7,189.56,265.65,189.56,257.72,175.83Z"/><path class="cls-13" d="M254.85,174a1.83,1.83,0,1,0,1.82-1.83A1.81,1.81,0,0,0,254.85,174Z"/><g class="cls-29"><path class="cls-28" d="M258.78,174c12.88,0,9.35-10.28,3.33-6.74,1.74,1.54,1.32,5-3.71,6.29a1.64,1.64,0,0,1,.1.45,1.73,1.73,0,0,1-.1.45c5,1.24,5.45,4.75,3.71,6.29C268.13,184.29,271.66,174,258.78,174Z"/><path class="cls-28" d="M254.26,177.88l.17-.22"/><path class="cls-28" d="M254.43,177.66c0,.07.1.15.16.22"/></g><g class="cls-30"><circle class="cls-31" cx="55.75" cy="199.13" r="55.75"/></g><path class="cls-2" d="M162.7,204.05a10,10,0,0,0-9.56,7.2h-43a56.37,56.37,0,0,1-1.53,5.53h44.49a10,10,0,1,0,9.56-12.73Zm0,14.4a4.44,4.44,0,1,1,4.44-4.44A4.44,4.44,0,0,1,162.7,218.45Z"/><path class="cls-2" d="M53.12,254.8l-.5,38a2.77,2.77,0,0,0,2.73,2.8h0a2.77,2.77,0,0,0,2.77-2.73l.5-38.07A53.67,53.67,0,0,1,53.12,254.8Z"/><path class="cls-32" d="M35.68,240.41a3.47,3.47,0,0,1-3.47-3.47V219.3a8.7,8.7,0,0,1,4.29-8l1.59-1,7.12,6.42a14.91,14.91,0,0,0,21.09,0l7.11-6.32,1.59.89c3,1.5,4.3,4.69,4.3,8v17.64a3.47,3.47,0,0,1-3.47,3.47Z"/><path class="cls-33" d="M55.75,205.69a21,21,0,0,1-20.94-19.92l-.13-2.62,2.62.23c.25,0,.51,0,.77,0a9.2,9.2,0,0,0,9.19-9.19c0-.17,0-.35,0-.52L47,169.62l3.6,1.92a11,11,0,0,0,10.29,0l3.59-1.91-.23,4.06c0,.19,0,.36,0,.53a9.19,9.19,0,0,0,9.18,9.19q.39,0,.78,0l2.45-.21,0,2.6A20.94,20.94,0,0,1,55.75,205.69Z"/><path class="cls-33" d="M61.53,208.65v-4.5H50v4.5l-9.9.82,6.2,6.15a13.4,13.4,0,0,0,19,0l6.21-6.15Z"/><path class="cls-34" d="M55.75,226.15A19.4,19.4,0,0,1,42,220.44L34.46,213l.85-.82,1.19-.88a10.61,10.61,0,0,1,6.35-2.1h2.94l3.72,3.73a8.84,8.84,0,0,0,12.48,0l3.73-3.73h2.93a10.66,10.66,0,0,1,6.4,2.09l1,.64,1.06,1-7.56,7.58A19.38,19.38,0,0,1,55.75,226.15Z"/><path class="cls-35" d="M62.31,208.74l-4.14,4.17a8.81,8.81,0,0,1-4.35,2.37,9.22,9.22,0,0,0,1.9.22A8.76,8.76,0,0,0,62,212.91L65.9,209Z"/><path class="cls-36" d="M77.57,172.11a14.26,14.26,0,0,0-26.12-7.92,20.63,20.63,0,0,0-4.8,1.64,21,21,0,0,0-11.86,18.89c0,.35,0,.71,0,1.06l.1,2,2,.17a11.13,11.13,0,0,0,1.16.05,13.78,13.78,0,0,0,13.52-11.15,15.47,15.47,0,0,0,8.32,0A13.79,13.79,0,0,0,73.43,188a11.33,11.33,0,0,0,1.17-.05l2-.17.09-2q0-.53,0-1.05a21.19,21.19,0,0,0-.89-6.05A17.7,17.7,0,0,0,77.57,172.11Z"/><path class="cls-37" d="M70.37,237.36l-.3,0-.29-.08-.26-.14-.23-.2a1.06,1.06,0,0,1-.19-.23,1.3,1.3,0,0,1-.14-.26,1.4,1.4,0,0,1-.09-.29,1.53,1.53,0,0,1,0-.3,1.36,1.36,0,0,1,0-.29,1.4,1.4,0,0,1,.09-.29,1.3,1.3,0,0,1,.14-.26,1.12,1.12,0,0,1,.19-.24,2.11,2.11,0,0,1,.23-.19l.26-.14a1.57,1.57,0,0,1,.29-.08,1.52,1.52,0,0,1,.6,0,1.29,1.29,0,0,1,.28.08,2.29,2.29,0,0,1,.27.14,2.11,2.11,0,0,1,.23.19,1.12,1.12,0,0,1,.19.24,1.3,1.3,0,0,1,.14.26,1.4,1.4,0,0,1,.09.29,1.36,1.36,0,0,1,0,.29,1.53,1.53,0,0,1,0,.3,1.4,1.4,0,0,1-.09.29,1.3,1.3,0,0,1-.14.26,1.06,1.06,0,0,1-.19.23l-.23.2a2.29,2.29,0,0,1-.27.14l-.28.08Z"/><path class="cls-37" d="M64.74,237.36H40.6a1.53,1.53,0,1,1,0-3.05H64.74a1.53,1.53,0,0,1,0,3.05Z"/><path class="cls-37" d="M75,211.26l-1.59-.89-1,.93c2.91,1.51,4.23,4.67,4.23,8v17.64a3.46,3.46,0,0,1-3.46,3.47h2.69a3.47,3.47,0,0,0,3.47-3.47V219.3C79.3,216,78,212.76,75,211.26Z"/><path class="cls-38" d="M76,211.89l-1-.64a10.66,10.66,0,0,0-6.4-2.09H66a10.61,10.61,0,0,1,6.39,2.09l1,.64,1.06,1-7.55,7.58a19.34,19.34,0,0,1-12.44,5.64c.44,0,.89.07,1.34.07a19.38,19.38,0,0,0,13.79-5.71l7.56-7.58Z"/><g class="cls-39"><path class="cls-40" d="M64.73,234.31H62a1.53,1.53,0,1,1,0,3.05h2.69a1.53,1.53,0,1,0,0-3.05Z"/></g><g class="cls-41"><path class="cls-20" d="M63.8,144.07A55.76,55.76,0,0,1,41.72,253.21,55.76,55.76,0,1,0,63.8,144.07Z"/></g><path class="cls-35" d="M61.53,208.65v-3.78a20.91,20.91,0,0,0,15.16-19.1l-.18-2.52-2.3.13h-.09L74,185.77a20.94,20.94,0,0,1-15.16,19.1v3.78"/><path class="cls-42" d="M73.43,188a11.33,11.33,0,0,0,1.17-.05l2-.17.09-2q0-.53,0-1.05a21.19,21.19,0,0,0-.89-6.05,17.7,17.7,0,0,0,1.74-6.56,14.28,14.28,0,0,0-14.26-14.26c-.42,0-.82,0-1.23.08a14.26,14.26,0,0,1,12.79,14.18,17.51,17.51,0,0,1-1.74,6.56,20.85,20.85,0,0,1,.89,6.05c0,.35,0,.7,0,1.05l-.25,2.1"/><circle class="cls-43" cx="93.26" cy="369.18" r="55.75"/><path class="cls-2" d="M204.48,374.9l-55.71-.72q-.26,2.81-.77,5.51l56.41.74h0a2.77,2.77,0,0,0,0-5.53Z"/><path class="cls-2" d="M171.62,295h0a9.94,9.94,0,0,0-16,11.41l-23.7,22.49a55.24,55.24,0,0,1,3.66,4.14l23.84-22.62A9.94,9.94,0,0,0,171.62,295Zm-4.18,10.07a4.43,4.43,0,1,1,.17-6.27A4.43,4.43,0,0,1,167.44,305.05Z"/><path class="cls-33" d="M114.42,351.23l-.71,0,.6-.2h0l-1.2.24-.69,0,0-.26a7.8,7.8,0,0,1-6.76-6.22l-.24-1.27-1.22-.45c-9.52-3.51-22.63-4.39-23.18-4.43l-3.49-.23,1.17,3.29c.36,1,1.12,4.39-.16,6.2-.71,1-2.13,1.52-4.22,1.53H72.24l-.18,2.1c0,.6-.07,1.22-.07,1.83a21.26,21.26,0,0,0,13.87,19.91v7.09h14.79v-7.09a21.27,21.27,0,0,0,13.88-19.91v-.07C114.53,352.65,114.49,351.93,114.42,351.23Z"/><g class="cls-41"><path class="cls-1" d="M101.3,313.43A55.75,55.75,0,0,1,79.23,422.56,55.75,55.75,0,1,0,101.3,313.43Z"/></g><path class="cls-35" d="M97.06,374.33v7.89h1.29v-.16h2.3v-8.73a21.27,21.27,0,0,0,13.88-19.91v-.06c0-.71,0-1.43-.11-2.13h-3.59c.07.7.11,1.42.11,2.13v.06a21.26,21.26,0,0,1-13.88,19.93Z"/><path class="cls-44" d="M67.82,407.36V392.1a13.82,13.82,0,0,1,13.82-13.82h23.24A13.82,13.82,0,0,1,118.7,392.1v15.26a3.1,3.1,0,0,1-3.1,3.1H70.92A3.1,3.1,0,0,1,67.82,407.36Z"/><rect class="cls-34" x="83.53" y="378.28" width="19.46" height="32.18"/><path class="cls-45" d="M93.26,387.75l-.3,0a1.4,1.4,0,0,1-.29-.09l-.26-.14a1.33,1.33,0,0,1-.43-.43,2.15,2.15,0,0,1-.14-.26,1.4,1.4,0,0,1-.09-.29,1.45,1.45,0,0,1,.09-.88,1.71,1.71,0,0,1,.14-.27,2.11,2.11,0,0,1,.19-.23,1.12,1.12,0,0,1,.24-.19.94.94,0,0,1,.26-.14,1.4,1.4,0,0,1,.29-.09,1.51,1.51,0,0,1,.6,0,1.61,1.61,0,0,1,.29.09.94.94,0,0,1,.26.14,1.57,1.57,0,0,1,.42.42.87.87,0,0,1,.14.27,1.48,1.48,0,0,1,.09.88,1.4,1.4,0,0,1-.09.29.94.94,0,0,1-.14.26,1.12,1.12,0,0,1-.19.24,2.11,2.11,0,0,1-.23.19l-.26.14a1.61,1.61,0,0,1-.29.09Z"/><path class="cls-45" d="M93.26,394.41a1.53,1.53,0,0,0-1.54,1.53v14.52h3.07V395.94A1.52,1.52,0,0,0,93.26,394.41Z"/><path class="cls-46" d="M104.88,378.28h-3.59a13.82,13.82,0,0,1,13.82,13.82v15.26a3.1,3.1,0,0,1-3.11,3.1h3.6a3.1,3.1,0,0,0,3.1-3.1V392.1A13.82,13.82,0,0,0,104.88,378.28Z"/><g class="cls-47"><rect class="cls-45" x="99.39" y="378.28" width="3.59" height="32.18"/></g><path class="cls-36" d="M111.94,355.65a12.34,12.34,0,0,1-10.43-8.6,90.61,90.61,0,0,0-17.72-3.48.78.78,0,0,1,0,.14,10,10,0,0,1-1.48,6.91c-1.63,2.3-4.32,3.47-8,3.47H72v-7.72a17,17,0,0,1,6.36-13.78,23.74,23.74,0,0,1,14.77-4.69h.11c12.66,0,21.17,7.34,21.17,18.27v5.56c0,.54.06,1.09.07,1.62v2.58Z"/><path class="cls-42" d="M114.51,355.93v-2.58c0-.53,0-1.08-.07-1.62v-5.56c0-10.93-8.51-18.27-21.17-18.27h-.11c-.57,0-1.12,0-1.68.07,11.66.67,19.37,7.8,19.37,18.2v5.56c0,.54.06,1.09.06,1.62v2.1c.35.07.68.16,1,.2Z"/><g class="cls-3"><path class="cls-13" d="M208.34.59a55.76,55.76,0,0,1-22.08,109.13A55.75,55.75,0,1,0,208.34.59Z"/></g><circle class="cls-48" cx="200.29" cy="55.75" r="55.75"/><path class="cls-49" d="M194.07,59.89l-.06,0c0,.51,0,1.08,0,1.7h.06V59.89Z"/><path class="cls-50" d="M200.38,80.72l0-.06,0,0Z"/><path class="cls-50" d="M194,61.55c0,.5,0,1,.06,1.57V61.54Z"/><path class="cls-51" d="M200.36,79.05c0,.34,0,.69,0,1.06A3.14,3.14,0,0,0,200.36,79.05Z"/><path class="cls-51" d="M200.42,80.63v0Z"/><path class="cls-51" d="M221.4,67.23c-.46-.23-.92-.45-1.35-.7A51.49,51.49,0,0,0,212.42,63c1.82,1.65,3.28,3.55,3.57,5.29-1.86-1.35-3.21-2.24-7.53-2.28a17.19,17.19,0,0,1,3,6.73c-2.68,0-7.07,1.95-11.09,7.93v0l0,.06v-.09c-4-5.93-8.38-7.86-11-7.87A17.19,17.19,0,0,1,192.39,66c-4.32,0-5.67.93-7.53,2.28.29-1.79,1.83-3.76,3.73-5.43a49.29,49.29,0,0,0-8.05,3.65c-.33.19-.67.36-1,.54-3.59,1.79-7.8,3.21-7.8,8.28V86.83c0,2.88,2.94,5,7.07,5h43c4.14,0,7.08-2.14,7.08-5V75.35C228.87,70.43,224.91,69,221.4,67.23Zm-2.27,17.52a1,1,0,0,1-.95,1h-1.51v1.5a.94.94,0,0,1-.95,1h-.63a1,1,0,0,1-1-1V85.7h-1.5a.94.94,0,0,1-.95-1v-.63a.94.94,0,0,1,.95-1h1.5V81.66a1,1,0,0,1,1-.94h.63a.94.94,0,0,1,.95.94v1.51h1.51a1,1,0,0,1,.95,1Z"/><path class="cls-24" d="M206.83,59.91a12,12,0,0,1-12.76,0v3.23a15.49,15.49,0,0,0,1.06,5,9.1,9.1,0,0,0,1.1,1.91c2.2,2.87,3.79,5.08,4.13,9a3.14,3.14,0,0,1,0,1.06c0,.17,0,.34,0,.52h0c0-5,1.72-7.39,4.19-10.63a9.17,9.17,0,0,0,1.16-2C206.9,65.21,206.85,62,206.83,59.91Z"/><path class="cls-24" d="M194,59.86l.06,0a12,12,0,0,0,12.76,0l.49-.3c4.58-2.93,8-8.48,9.19-14.16-1.55,2.42-2.74,1.55-3-2.33A10.74,10.74,0,0,0,209,35.4a14.88,14.88,0,0,1,1,4.08,2.6,2.6,0,0,1-3.09,3c-6.45-1-12.12-4-15.26-7.24a10.21,10.21,0,0,0-4.3,8c.07,2.27-1.11,5-2.48,3.87a22.23,22.23,0,0,0,8.75,12.49A2.87,2.87,0,0,0,194,59.86Z"/><path class="cls-8" d="M200.41,80.11c0-.37,0-.72,0-1.06-.34-4-1.93-6.17-4.13-9a9.1,9.1,0,0,1-1.1-1.91,15.49,15.49,0,0,1-1.06-5c0-.54,0-1,0-1.54s0-.66,0-1.16v-.56a2.47,2.47,0,0,1-.41-.24,21.35,21.35,0,0,0-5.07,3.26c-1.9,1.67-3.44,3.64-3.73,5.43,1.86-1.35,3.21-2.24,7.53-2.28a17.19,17.19,0,0,0-3.06,6.73c2.67,0,7,1.94,11,7.87l0,0v0C200.42,80.45,200.42,80.28,200.41,80.11Z"/><path class="cls-8" d="M206.83,59.91c0,2.08.07,5.3-1.06,8a9.17,9.17,0,0,1-1.16,2c-2.47,3.24-4.17,5.62-4.19,10.63v.06c4-6,8.41-7.92,11.09-7.93a17.19,17.19,0,0,0-3-6.73c4.32,0,5.67.93,7.53,2.28-.29-1.74-1.75-3.64-3.57-5.29a38.45,38.45,0,0,0-5.1-3.41Z"/><path class="cls-7" d="M219.27,64.33a1.87,1.87,0,0,1-2.34-.73A8,8,0,0,0,221.29,57c0-2.11-1.31-1.39-1.72-1.22-2.1.84-4.12-3.33-1.23-6.46,1.57-1.51.77-2.57.3-3.1A13.38,13.38,0,0,0,217,44.62h0c.11-.2.22-.43.33-.67,1.27-2.7-.33-11.27-5.46-16.88a4.69,4.69,0,0,1-4.37,2.38H194.17a4.64,4.64,0,0,1-4.78-3.37l0-.14c-5.53,4.64-7.57,12.31-6.29,17.26.17.66.35,1.23.52,1.72a15.45,15.45,0,0,0-1.28,1.28c-.47.53-1.26,1.59.31,3.1,2.88,3.13.86,7.31-1.23,6.46-.42-.17-1.73-.89-1.73,1.22A8,8,0,0,0,184,63.6a1.87,1.87,0,0,1-2.34.73c-.42-.23-2-1.29-2.18,1.51a7.3,7.3,0,0,0,0,1.23c.35-.18.69-.35,1-.54a49.29,49.29,0,0,1,8.05-3.65,21.87,21.87,0,0,1,5.42-3,23.65,23.65,0,0,1-9.18-12.75c1.37,1.14,2.53-1.62,2.47-3.88a10.21,10.21,0,0,1,4.3-8c3.14,3.28,8.81,6.27,15.26,7.24a2.6,2.6,0,0,0,3.09-3,15.27,15.27,0,0,0-1-4.07,10.74,10.74,0,0,1,4.53,7.72c.24,3.87,1.43,4.75,3,2.34-1.15,5.67-4.61,11.23-9.18,14.15a47.67,47.67,0,0,1,5.1,3.41,51.49,51.49,0,0,1,7.63,3.51c.43.25.89.47,1.35.7a7.27,7.27,0,0,0,0-1.39C221.29,63,219.69,64.1,219.27,64.33Z"/><path class="cls-51" d="M194.17,29.44H207.5a4.69,4.69,0,0,0,4.37-2.38,4.8,4.8,0,0,0,.41-1c.57-1.9,1.9-6.4,1.9-6.4.76-2.26-.5-5-3.14-5H190.63c-2.64,0-3.9,2.74-3.14,5l1.85,6.26,0,.14A4.64,4.64,0,0,0,194.17,29.44Zm3-7.7a.94.94,0,0,1,.94-.95h1.51V19.28a.94.94,0,0,1,1-.94h.63a1,1,0,0,1,.95.94v1.51h1.5a.94.94,0,0,1,1,.95v.63a.94.94,0,0,1-1,.95h-1.5v1.5a1,1,0,0,1-.95.95h-.63a.94.94,0,0,1-1-.95v-1.5h-1.51a.94.94,0,0,1-.94-.95Z"/><path class="cls-52" d="M198.06,23.32h1.51v1.5a.94.94,0,0,0,1,.95h.63a1,1,0,0,0,.95-.95v-1.5h1.5a.94.94,0,0,0,1-.95v-.63a.94.94,0,0,0-1-.95h-1.5V19.28a1,1,0,0,0-.95-.94h-.63a.94.94,0,0,0-1,.94v1.51h-1.51a.94.94,0,0,0-.94.95v.63A.94.94,0,0,0,198.06,23.32Z"/><path class="cls-52" d="M218.18,83.17h-1.51V81.66a.94.94,0,0,0-.95-.94h-.63a1,1,0,0,0-1,.94v1.51h-1.5a.94.94,0,0,0-.95,1v.63a.94.94,0,0,0,.95,1h1.5v1.5a1,1,0,0,0,1,1h.63a.94.94,0,0,0,.95-1V85.7h1.51a1,1,0,0,0,.95-1v-.63A1,1,0,0,0,218.18,83.17Z"/><path class="cls-53" d="M216.23,46.55c.4.59.69,1.51-.59,2.74a6.59,6.59,0,0,0-.66.89c-.17.39-.35.79-.54,1.18-.82,2.6.78,5.06,2.43,4.39.41-.17,1.73-.89,1.73,1.22a8,8,0,0,1-4.36,6.63c.07.08.15.14.23.22.51.21,1,.43,1.57.68a1.36,1.36,0,0,0,.54-.17,3.28,3.28,0,0,1,.76-.34,3.73,3.73,0,0,1-.41-.39A8,8,0,0,0,221.3,57c0-2.11-1.32-1.39-1.73-1.22-2.1.84-4.12-3.33-1.23-6.46,1.57-1.51.77-2.57.3-3.1A12.71,12.71,0,0,0,217,44.62h0c.11-.2.22-.43.33-.67,1.27-2.7-.33-11.27-5.46-16.88a4.41,4.41,0,0,1-1.44,1.54c4.12,5.53,5.36,12.87,4.2,15.34-.11.24-.22.47-.33.67h0A14.13,14.13,0,0,1,216,46.19h0a4.77,4.77,0,0,0,.55-.73C216.43,45.83,216.32,46.19,216.23,46.55Z"/><path class="cls-53" d="M219.27,64.33a1.32,1.32,0,0,1-.82.15,3.44,3.44,0,0,1,.31,1.36h0l1.29.68c.43.25.89.47,1.35.7a7.27,7.27,0,0,0,0-1.39C221.3,63,219.69,64.1,219.27,64.33Z"/><path class="cls-53" d="M217.34,64a2,2,0,0,0,1.11.49A.91.91,0,0,0,217.34,64Z"/><path class="cls-54" d="M221.4,67.23c-.46-.23-.92-.45-1.35-.7A51.49,51.49,0,0,0,212.42,63a16.09,16.09,0,0,1,2,2.15c.84.41,1.71.86,2.62,1.36.44.25.89.47,1.35.7,3.52,1.72,7.47,3.2,7.47,8.12V86.83c0,2.88-2.93,5-7.07,5h3c4.14,0,7.08-2.14,7.08-5V75.35C228.87,70.43,224.91,69,221.4,67.23Z"/><path class="cls-54" d="M211,14.67h-3c2.64,0,3.91,2.74,3.15,5,0,0-1.34,4.5-1.9,6.4a5.42,5.42,0,0,1-.41,1,4.7,4.7,0,0,1-4.37,2.38h3a4.69,4.69,0,0,0,4.37-2.38,4.8,4.8,0,0,0,.41-1c.57-1.9,1.9-6.4,1.9-6.4C214.94,17.41,213.68,14.67,211,14.67Z"/><path class="cls-25" d="M213.52,43.12A10.74,10.74,0,0,0,209,35.4a15.25,15.25,0,0,1,1,4.08,3.58,3.58,0,0,1,0,1,9.34,9.34,0,0,1,.62,2.68c.24,3.88,1.43,4.75,3,2.33-1.15,5.68-4.62,11.23-9.19,14.16l-.49.3v1.31a13.3,13.3,0,0,0,2.31-1,13,13,0,0,1-2.31,1A18.16,18.16,0,0,1,202.77,68a8.76,8.76,0,0,1-1.15,2,28.11,28.11,0,0,0-2.69,4,12.88,12.88,0,0,1,1.43,5,3.14,3.14,0,0,1,0,1.06c0,.17,0,.34,0,.52h0c0-5,1.72-7.39,4.19-10.63a9.17,9.17,0,0,0,1.16-2c1.13-2.75,1.08-6,1.06-8l.49-.3c4.58-2.93,8-8.48,9.19-14.16C215,47.87,213.76,47,213.52,43.12Z"/><path class="cls-2" d="M147.5,73.65l-37.92,36.4a2.77,2.77,0,0,0,3.83,4l36.3-34.85A55.58,55.58,0,0,1,147.5,73.65Z"/><path class="cls-2" d="M203.87,148.08v-36.7c-1.19.07-2.37.12-3.58.12-.65,0-1.3,0-1.95,0v36.63a10,10,0,1,0,5.53,0Zm-2.77,14a4.44,4.44,0,1,1,4.44-4.44A4.45,4.45,0,0,1,201.1,162.09Z"/></g></g></svg>