<svg xmlns="http://www.w3.org/2000/svg" viewBox="0 0 495.78 427.01"><defs><style>.cls-1{fill:#d385d2;}.cls-2{fill:#fff;}.cls-3{opacity:0.3;}.cls-11,.cls-4{opacity:0.7;}.cls-11,.cls-5{fill:#a863aa;}.cls-6{fill:#b6d8cd;}.cls-7{fill:#864789;}.cls-13,.cls-8{fill:#f9ab93;}.cls-15,.cls-9{fill:#6fa38e;}.cls-14,.cls-9{opacity:0.46;}.cls-10,.cls-17{fill:#e28874;}.cls-10,.cls-16{opacity:0.59;}.cls-12{fill:#f4dbd4;}.cls-12,.cls-13{opacity:0.9;}</style></defs><title>feature1</title><g id="Layer_2" data-name="Layer 2"><g id="Layer_1-2" data-name="Layer 1"><path class="cls-1" d="M169.31,231.5H11.51A11.53,11.53,0,0,0,0,243V415.49A11.53,11.53,0,0,0,11.51,427h157.8a11.54,11.54,0,0,0,11.52-11.52V243A11.54,11.54,0,0,0,169.31,231.5Z"/><path class="cls-2" d="M166.52,239.77H14.05a5.6,5.6,0,0,0-5.6,5.6v134.3a5.6,5.6,0,0,0,5.6,5.6H166.52a5.6,5.6,0,0,0,5.6-5.6V245.37A5.6,5.6,0,0,0,166.52,239.77Z"/><path class="cls-1" d="M138.16,273.86a58.09,58.09,0,0,0-47.7-26.47h-.09a58.09,58.09,0,0,0-47.71,26.47,2.48,2.48,0,0,0,.7,3.4c11.41,7.61,20,13.65,28,19.58a2.45,2.45,0,0,0,1.47.49h.25A2.92,2.92,0,0,0,75,296a18.87,18.87,0,0,1,15.38-9.43h0A18.9,18.9,0,0,1,105.8,296a2.54,2.54,0,0,0,.79.87,2.46,2.46,0,0,0,2.86-.07c8-5.93,16.6-12,28-19.58A2.46,2.46,0,0,0,138.16,273.86Zm-6.95,1.64c-8.2,5.51-15,10.22-21.16,14.76a1.87,1.87,0,0,1-2.52-.28,23.73,23.73,0,0,0-14.64-8.08v-11a2.54,2.54,0,0,0-2.4-2.58,2.47,2.47,0,0,0-2.54,2.47v11.06s0,0,0,0a23.76,23.76,0,0,0-14.52,7.94,2.06,2.06,0,0,1-2.78.31c-6.15-4.49-12.84-9.15-20.93-14.59a1.74,1.74,0,0,1-.41-2.51,53,53,0,0,1,9.89-9.84v0l-.68-.94.68.95,3.29,4.58a2.47,2.47,0,1,0,4-2.88l-3.23-4.51-.74-1,.73,1h0a53,53,0,0,1,24.66-7.95h0v4.78a2.47,2.47,0,0,0,4.94,0v-4.78h0a53,53,0,0,1,24.67,7.95h0l.73-1-.74,1-3.23,4.51a2.48,2.48,0,0,0,.57,3.45,2.44,2.44,0,0,0,1.43.46,2.47,2.47,0,0,0,2-1l3.29-4.58.68-.95-.67.94s0,0,0,0a53.15,53.15,0,0,1,10,9.92A1.65,1.65,0,0,1,131.21,275.5Z"/><g class="cls-3"><path class="cls-1" d="M131.56,273.13a54.24,54.24,0,0,0-4.29-4.91c-7.15,5-17.78,12.47-24.66,17.43A23.63,23.63,0,0,1,107.5,290a1.86,1.86,0,0,0,2.51.28c6.21-4.54,13-9.25,21.16-14.76A1.65,1.65,0,0,0,131.56,273.13Z"/></g><path class="cls-1" d="M131.32,317.31l-.28-.08h0l-.59-.16h0l-.59-.14h0c-.2-.05-.39-.09-.59-.12h0a14.91,14.91,0,0,0-10.55,1.82h0l-.43.27h0l-.41.29h0l-.39.29h0l-.38.3,0,0-.36.31,0,0c-.12.1-.24.2-.35.31l0,0c-.11.1-.22.21-.32.32l0,0c-.11.1-.21.21-.32.32l0,.05-.3.33,0,.06-.28.33-.05.07-.26.33-.06.08-.24.34-.06.09-.22.33-.06.1a2.39,2.39,0,0,0-.21.34l-.07.11-.19.33-.06.12-.18.34-.06.12L113,325l-.06.14-.15.33-.06.15-.13.33-.06.16-.12.33a1.09,1.09,0,0,1,0,.17c0,.11-.07.22-.1.33a1.21,1.21,0,0,0-.05.18c0,.11-.07.21-.1.32s0,.13,0,.19-.06.22-.08.32,0,.14,0,.21,0,.21-.07.31l0,.21c0,.11,0,.21,0,.32l0,.21c0,.11,0,.21,0,.32l0,.22,0,.32a1.7,1.7,0,0,1,0,.22c0,.11,0,.21,0,.32v.23c0,.1,0,.21,0,.32v.23c0,.11,0,.21,0,.32a1.69,1.69,0,0,0,0,.23c0,.11,0,.22,0,.32a1.94,1.94,0,0,1,0,.24l0,.32,0,.23c0,.11,0,.23,0,.34a1.7,1.7,0,0,0,0,.22c0,.11,0,.23.05.34s0,.15,0,.22,0,.23.07.35,0,.13,0,.19l.09.38c0,.06,0,.12,0,.17s.07.27.11.41a.65.65,0,0,0,0,.13c0,.15.08.29.13.44l0,.08a16.79,16.79,0,0,0,.64,1.64s5.07,9.81-.71,22.29h0c-.09.21-.17.41-.25.62l-.05.14a14.51,14.51,0,0,0-.65,7.66h0c0,.18.07.36.11.54l.06.24a1.8,1.8,0,0,0,0,.19,13.09,13.09,0,0,0,3.51,6.19l.32.31,0,0a10.19,10.19,0,0,0,4.38,2.36,9.21,9.21,0,0,0,4,.09l.22-.05.23-.05.32-.08.2-.06.37-.11.17-.06.47-.18L126,378l.41-.18.24-.12.19-.09h0a14.47,14.47,0,0,0,7.46-9.94s9.08-30.23,9.08-30.25C145.38,329,140,320,131.32,317.31Z"/><path class="cls-1" d="M114.61,311.6a5.4,5.4,0,0,0,1.13.62l.1,0,.46.16.17,0,.41.1.22,0,.37.05.26,0h.34l.25,0,.36,0,.19,0,.4-.07.17,0,.4-.11.2-.08.34-.13a1.92,1.92,0,0,0,.25-.12l.27-.13.28-.17.21-.14a2.47,2.47,0,0,0,.27-.21l.2-.15.24-.22.2-.2.19-.21.23-.28.13-.18c.09-.12.17-.25.25-.38l.06-.09h0a6,6,0,0,0-5.15-8.94h0a5.79,5.79,0,0,0-4.91,2.57,6,6,0,0,0-1,2.95,2.17,2.17,0,0,0,0,.26,1.09,1.09,0,0,0,0,.18h0A5.76,5.76,0,0,0,114.61,311.6Z"/><path class="cls-1" d="M128,306a4.2,4.2,0,0,0-.78,2.44,3.59,3.59,0,0,0,0,.47,4.07,4.07,0,0,0,1.81,3h0a4.51,4.51,0,0,0,.75.4l.08,0,.31.11.18.05.22.05.28.05.13,0a6,6,0,0,0,.85,0l.2,0,.2,0,.26-.07.14,0,.25-.08.14-.06.21-.09.17-.08.17-.1.18-.12.15-.11.18-.13.31-.28h0c.1-.1.19-.21.28-.32l0,0q.12-.15.24-.33h0a4.13,4.13,0,0,0,.69-2.3,4.22,4.22,0,0,0-4.21-4.22h-.3l-.24,0-.21,0-.14,0a4,4,0,0,0-2.37,1.44h0Z"/><path class="cls-1" d="M138.16,311.73a3.23,3.23,0,0,0-.25,2.6v0l.09.23.06.14,0,.07,0,.05a1.28,1.28,0,0,0,.11.2.41.41,0,0,0,.07.11,1.63,1.63,0,0,0,.11.17l.09.12.11.13.11.12.13.12.12.11.15.12.11.08.22.13.06,0a3.1,3.1,0,0,0,1.17.38l.11,0h.69a3.39,3.39,0,0,0,1.36-6.3h0l0,0-.13-.07-.17-.09-.07,0a3.28,3.28,0,0,0-2.59,0l-.05,0-.17.09a3.4,3.4,0,0,0-1.34,1.21l-.11.19Z"/><path class="cls-1" d="M147.21,323.13h.08l.18,0,.1,0,.14,0,.13,0L148,323l.14-.06.05,0,.06,0a2.72,2.72,0,0,0,.13-4.78h0l-.15-.08-.09,0-.1,0a2.58,2.58,0,0,0-2,0l-.07,0-.11.05a2.74,2.74,0,0,0-1.09,1,1,1,0,0,0-.08.14l0,0a2.67,2.67,0,0,0-.12,2.32l0,.07,0,.08,0,.06.06.11.08.13.06.08.11.15,0,.05.14.15,0,0,.15.14,0,0,.16.12.07,0,.15.09.09,0,.14.07.1,0,.14.05.11,0,.15,0,.1,0,.18,0h.55Z"/><circle class="cls-1" cx="149.13" cy="327.84" r="1.79"/><path class="cls-1" d="M62.51,378l.3-.14.25-.13.33-.18.2-.11.36-.22.14-.1.38-.26.09-.07.4-.32.05,0c4.27-3.54,5.94-10.27,3.41-16.17-5.77-12.47-.7-22.28-.7-22.28,5.06-11.39-3.62-22.79-15.25-21.3h0l-.58.09h0l-.54.1-.09,0-.51.11-.1,0-.49.13-.14,0-.47.14a17.68,17.68,0,0,0-7,4.15,16.94,16.94,0,0,0-5,15.94s9.07,30.24,9.08,30.26A14.37,14.37,0,0,0,54.89,378a12.23,12.23,0,0,0,1.16.4c.39.11.78.19,1.17.26a9.07,9.07,0,0,0,4.11-.26l.6-.21.24-.1Z"/><path class="cls-1" d="M56.87,307c0,.07,0,.13,0,.2s0,.05,0,.08a1.6,1.6,0,0,0,0,.23c0,.14,0,.27,0,.39a.44.44,0,0,1,0,.1,5.76,5.76,0,0,0,2.91,3.95l.27.14.08,0a5.85,5.85,0,0,0,2.57.6l.29,0h.25l.15,0a5.77,5.77,0,0,0,4.23-2.56l.09-.15.15-.23h0a5.94,5.94,0,0,0-5.15-8.94H62.3l-.34,0-.26,0-.33.08-.25.06-.3.1-.25.1a2.36,2.36,0,0,0-.28.12l-.25.12-.25.15c-.08.05-.17.09-.25.15l-.23.16-.23.18-.22.19-.2.18-.22.23a1.54,1.54,0,0,0-.17.19,2.56,2.56,0,0,0-.2.26l-.15.19-.18.28-.12.21c0,.09-.1.2-.15.3l-.11.21-.12.31a2.25,2.25,0,0,0-.08.24c0,.1-.06.2-.09.3s0,.18-.07.27,0,.19,0,.29,0,.2-.05.3,0,.2,0,.3,0,.2,0,.3,0,.05,0,.08S56.87,306.87,56.87,307Z"/><path class="cls-1" d="M45.18,308.6s0,.1,0,.14v.06a.88.88,0,0,1,0,.17c0,.09,0,.18,0,.27s0,.05,0,.07a4.07,4.07,0,0,0,2,2.79l.21.11h0a4.14,4.14,0,0,0,1.83.42h.38l.11,0a4.08,4.08,0,0,0,3-1.79l.12-.19.06-.1h0a4.22,4.22,0,0,0-3.65-6.32H49l-.28,0-.14,0-.27.07-.14,0-.25.09-.15,0-.22.1-.15.08-.2.11-.16.09-.18.13-.14.11-.17.15-.13.12-.17.17-.11.13-.15.19-.09.13c0,.06-.09.13-.14.2a1,1,0,0,1-.08.14l-.11.22c0,.05-.05.09-.07.15l-.09.21-.06.17-.06.22c0,.06,0,.12,0,.18l0,.22a1.18,1.18,0,0,0,0,.2c0,.07,0,.14,0,.21a1.55,1.55,0,0,0,0,.22s0,0,0,.06S45.18,308.55,45.18,308.6Z"/><path class="cls-1" d="M36.46,312.29l0,0a3.29,3.29,0,0,0,.25,2.59l0,0,.09.15a3.51,3.51,0,0,0,1.37,1.25l.15.07.07,0a3.25,3.25,0,0,0,2.58,0l.06,0,.18-.08.13-.07,0,0h0A3.39,3.39,0,0,0,40,310a3.62,3.62,0,0,0-.87,0L39,310h0a3.31,3.31,0,0,0-.94.35l-.07,0-.21.13-.11.08-.15.12-.12.11-.13.12-.11.12-.11.13-.09.12-.12.17-.06.1a2.12,2.12,0,0,0-.11.21l0,.05,0,.06-.06.15A2,2,0,0,0,36.46,312.29Z"/><path class="cls-1" d="M34.13,317.7a2.68,2.68,0,0,0-.8,0h0l-.08,0-.18.05h0l-.23.09-.06,0-.18.08-.1.07-.12.07-.12.09-.09.07-.12.11-.08.07-.1.12-.08.09a1,1,0,0,0-.08.11l-.08.12a.47.47,0,0,0-.06.09l-.09.16s0,0,0,0l0,.06s0,.07,0,.11a1.46,1.46,0,0,0-.07.19v0a2.61,2.61,0,0,0,.2,2.08l0,0a.75.75,0,0,0,.07.12,2.79,2.79,0,0,0,1.1,1l.11,0,.06,0a2.65,2.65,0,0,0,2.07,0l.06,0,.13-.06.12-.07h0a2.73,2.73,0,0,0-1.08-5.07Z"/><path class="cls-1" d="M31.69,326.05a1.79,1.79,0,1,0,1.79,1.79A1.79,1.79,0,0,0,31.69,326.05Z"/><rect class="cls-2" x="70.72" y="392.6" width="39.39" height="24.47" rx="12.23"/><g class="cls-4"><path class="cls-5" d="M131.29,317.33l-.28-.09h0l-.59-.16h0l-.59-.14h0l-.59-.12h0a15.6,15.6,0,0,0-6.37.14l.52.12h0l.59.16h0l.28.09c8.66,2.68,14.06,11.68,12.08,20.09,0,0-9.08,30.24-9.08,30.26a14.53,14.53,0,0,1-7.46,9.94h0l-.18.09-.25.11c-.13.07-.27.12-.41.18l-.14.06-.2.08a11.22,11.22,0,0,0,1.28.41,9.06,9.06,0,0,0,4,.09l.22,0,.23-.06.33-.08.2,0,.36-.12.17-.05.47-.18L126,378c.14-.06.28-.11.41-.18l.25-.11.18-.09h0a14.53,14.53,0,0,0,7.46-9.94s9.07-30.24,9.08-30.26C145.35,329,140,320,131.29,317.33Z"/><path class="cls-5" d="M67.69,338c5.07-11.39-3.62-22.79-15.25-21.29h0c-.19,0-.39.05-.58.09h0l-.54.1-.09,0-.32.07c8.65,2,14,11.5,9.79,21,0,0-5.07,9.81.7,22.29,2.54,5.9.86,12.62-3.41,16.17l0,0-.4.31-.1.07-.38.27-.14.09-.36.22-.19.12-.33.18-.26.12-.3.15-.32.13a8,8,0,0,0,.9.31,9.82,9.82,0,0,0,1.17.26,8.85,8.85,0,0,0,4.12-.26l.6-.21.23-.09.34-.14.3-.15.26-.12.33-.18.19-.12.36-.22.14-.09.38-.27.1-.07.4-.31,0,0c4.27-3.55,6-10.27,3.41-16.17C62.62,347.77,67.69,338,67.69,338Z"/></g><g class="cls-4"><path class="cls-5" d="M168.74,231.5H160c6.66,0,12.09,5.17,12.09,11.52V415.49c0,6.35-5.43,11.52-12.09,11.52h8.7c6.66,0,12.09-5.17,12.09-11.52V243C180.83,236.67,175.4,231.5,168.74,231.5Z"/></g><g class="cls-3"><path class="cls-1" d="M166.52,239.77h-8.28a5.6,5.6,0,0,1,5.59,5.59V379.67a5.6,5.6,0,0,1-5.59,5.6h8.28a5.6,5.6,0,0,0,5.6-5.6V245.36A5.6,5.6,0,0,0,166.52,239.77Z"/></g><g class="cls-3"><path class="cls-1" d="M97.88,392.6H89.6a12.23,12.23,0,0,1,0,24.46h8.28a12.23,12.23,0,1,0,0-24.46Z"/></g><path class="cls-6" d="M454.36,87.74a40,40,0,0,1-29.29-12.83c-16.16-17.12-16.16-45,0-62.08a39.86,39.86,0,0,1,58.6,0,44.88,44.88,0,0,1,12.12,31,44.93,44.93,0,0,1-12.12,31,40,40,0,0,1-29.3,12.84Zm0-79.17A32.21,32.21,0,0,0,430.79,18.9a36.13,36.13,0,0,0-9.75,25,36.15,36.15,0,0,0,9.75,25,32.07,32.07,0,0,0,47.15,0,36.24,36.24,0,0,0,9.75-25,36.19,36.19,0,0,0-9.75-25A32.21,32.21,0,0,0,454.36,8.57Z"/><path class="cls-6" d="M483,74.21c15.79-16.73,15.79-43.95,0-60.68a39,39,0,0,0-57.29,0c-15.8,16.73-15.8,43.95,0,60.69A39,39,0,0,0,483,74.21Zm-52.87-56a33,33,0,0,1,48.45,0c13.36,14.15,13.36,37.17,0,51.32a33,33,0,0,1-48.45,0C416.78,55.38,416.78,32.36,430.14,18.21Z"/><path class="cls-6" d="M435.75,35.78a3.53,3.53,0,0,1,0-7H446a3.53,3.53,0,0,1,0,7.05Z"/><path class="cls-6" d="M435.75,34.8H446a2.55,2.55,0,0,0,0-5.09H435.75a2.55,2.55,0,0,0,0,5.09Z"/><path class="cls-6" d="M462.76,35.78a3.53,3.53,0,0,1,0-7H473a3.53,3.53,0,0,1,0,7Z"/><path class="cls-6" d="M462.76,34.8H473a2.55,2.55,0,0,0,0-5.09H462.76a2.55,2.55,0,0,0,0,5.09Z"/><path class="cls-6" d="M439.76,62.22a3.8,3.8,0,0,1,0-7.58H469a3.8,3.8,0,0,1,0,7.58Z"/><path class="cls-6" d="M437.1,58.43a2.74,2.74,0,0,0,2.66,2.81H469a2.81,2.81,0,0,0,0-5.62H439.76A2.73,2.73,0,0,0,437.1,58.43Z"/><path class="cls-7" d="M333.9,87.74A40,40,0,0,1,304.6,74.9c-16.15-17.11-16.15-44.95,0-62.07a39.86,39.86,0,0,1,58.6,0c16.15,17.11,16.15,45,0,62.06A40,40,0,0,1,333.9,87.74Zm0-79.17A32.19,32.19,0,0,0,310.33,18.9c-11.15,11.8-12.94,30.48-4.27,44.41a35.29,35.29,0,0,0,4.27,5.53,32.07,32.07,0,0,0,47.15,0,36.24,36.24,0,0,0,9.75-25,36.18,36.18,0,0,0-9.75-25A32.21,32.21,0,0,0,333.9,8.57Zm-14.68,61a3.13,3.13,0,0,1-1.24-.26,3.49,3.49,0,0,1-1.73-4.45,19.82,19.82,0,0,1,36.81-.07,3.54,3.54,0,0,1,0,2.6,3.25,3.25,0,0,1-1.71,1.87,3,3,0,0,1-1.27.28,3.2,3.2,0,0,1-2.95-2.05,13.55,13.55,0,0,0-25,0A3.21,3.21,0,0,1,319.22,69.54Zm-1.42-22.8A8.6,8.6,0,0,1,311.63,44a3.55,3.55,0,0,1-.15-4.81A3.07,3.07,0,0,1,316,39a2.64,2.64,0,0,0,1.87.88,3.63,3.63,0,0,0,2.21-1,3.06,3.06,0,0,1,4.13-.13,2.45,2.45,0,0,1,.4.39,3.56,3.56,0,0,1-.25,4.82A10,10,0,0,1,317.8,46.74Zm31.7,0A8.65,8.65,0,0,1,343.32,44a3.57,3.57,0,0,1-.15-4.82,3.15,3.15,0,0,1,2.35-1.09,3.1,3.1,0,0,1,2.2.93,2.59,2.59,0,0,0,1.87.87,3.59,3.59,0,0,0,2.2-1,3.07,3.07,0,0,1,4.14-.13,3.78,3.78,0,0,1,.4.4,3.56,3.56,0,0,1-.25,4.81A10,10,0,0,1,349.5,46.71Z"/><path class="cls-7" d="M333.9,1a39.26,39.26,0,0,0-28.64,12.54c-15.8,16.74-15.8,44,0,60.69a39,39,0,0,0,57.29,0c15.79-16.73,15.79-43.95,0-60.68A39.27,39.27,0,0,0,333.9,1Zm24.23,68.55a33,33,0,0,1-48.46,0,35.88,35.88,0,0,1-4.38-5.68c-8.77-14.09-7.3-33.26,4.38-45.64a33,33,0,0,1,48.46,0C371.49,32.36,371.49,55.38,358.13,69.53ZM312.26,43.29a2.54,2.54,0,0,1-.11-3.43,2.2,2.2,0,0,1,3.25-.12c2.48,2.47,5,.2,5.31-.07a2.2,2.2,0,0,1,3-.1,2.65,2.65,0,0,1,.29.29,2.54,2.54,0,0,1-.18,3.43C321.73,45.22,316.74,47.73,312.26,43.29Zm43.38-3.46a2.52,2.52,0,0,1-.18,3.43c-2,1.93-7,4.44-11.51,0a2.53,2.53,0,0,1-.1-3.43,2.19,2.19,0,0,1,3.24-.12c2.48,2.47,5,.2,5.31-.07a2.2,2.2,0,0,1,3-.1A2,2,0,0,1,355.64,39.83Zm-3.42,25.31a2.48,2.48,0,0,1-1.2,3.19,2.24,2.24,0,0,1-3-1.26,14.44,14.44,0,0,0-26.68,0,2.29,2.29,0,0,1-2.11,1.49,2.23,2.23,0,0,1-.88-.18,2.5,2.5,0,0,1-1.24-3.18,18.93,18.93,0,0,1,35.12-.06Z"/><path class="cls-1" d="M454.36,198.22a40,40,0,0,1-29.29-12.83,45.79,45.79,0,0,1,0-62.07,39.84,39.84,0,0,1,58.59,0,45.79,45.79,0,0,1,0,62.07,40,40,0,0,1-29.3,12.83Zm0-79.17a32.21,32.21,0,0,0-23.57,10.33,36.86,36.86,0,0,0,0,50,32.08,32.08,0,0,0,47.15,0,36.85,36.85,0,0,0,0-49.94A32.21,32.21,0,0,0,454.36,119.05Zm.06,57.06a21.81,21.81,0,0,1-20.49-13.85,2.23,2.23,0,0,1,.19-2,2,2,0,0,1,1.67-.95l37.14,0a2,2,0,0,1,1.69,1,2.19,2.19,0,0,1,.16,2A22,22,0,0,1,454.42,176.11Zm7.64-26a1.38,1.38,0,0,1-.84-.29,1.58,1.58,0,0,1-.6-1.5l.53-3.45-2.23-2.43a1.57,1.57,0,0,1-.34-1.57,1.46,1.46,0,0,1,1.16-1l3-.49,1.37-3.09a1.44,1.44,0,0,1,1.32-.89,1.47,1.47,0,0,1,1.32.89l1.37,3.09,3,.49a1.45,1.45,0,0,1,1.16,1,1.59,1.59,0,0,1-.34,1.56l-2.24,2.43.54,3.44a1.57,1.57,0,0,1-.61,1.52,1.38,1.38,0,0,1-.83.28,1.36,1.36,0,0,1-.71-.2l-2.69-1.57-2.69,1.58A1.48,1.48,0,0,1,462.06,150.11Zm-21.47,0a1.44,1.44,0,0,1-.84-.28,1.59,1.59,0,0,1-.6-1.51l.53-3.45-2.23-2.43a1.58,1.58,0,0,1-.34-1.57,1.46,1.46,0,0,1,1.16-1l3-.49,1.37-3.09a1.42,1.42,0,0,1,2.64,0l1.37,3.09,3,.49a1.47,1.47,0,0,1,1.16,1,1.62,1.62,0,0,1-.34,1.57l-2.23,2.43.53,3.44a1.57,1.57,0,0,1-.6,1.51,1.38,1.38,0,0,1-.84.29,1.36,1.36,0,0,1-.71-.2L444,148.34l-2.69,1.57A1.36,1.36,0,0,1,440.59,150.11Z"/><path class="cls-1" d="M483,124a39,39,0,0,0-57.29,0c-15.8,16.73-15.8,44,0,60.69a39,39,0,0,0,57.29,0C498.8,168,498.8,140.74,483,124Zm-4.42,56a33,33,0,0,1-48.45,0c-13.36-14.15-13.36-37.18,0-51.33a33,33,0,0,1,48.45,0C492,142.84,492,165.87,478.59,180Zm-40.48-38.26a.6.6,0,0,1-.13-.58.55.55,0,0,1,.43-.38l3.52-.57,1.57-3.56a.54.54,0,0,1,1,0l1.57,3.56,3.52.57a.55.55,0,0,1,.43.38.6.6,0,0,1-.13.58l-2.56,2.78.61,3.93a.59.59,0,0,1-.22.56.52.52,0,0,1-.31.1.48.48,0,0,1-.26-.07L444,147.22l-3.14,1.84a.51.51,0,0,1-.57,0,.61.61,0,0,1-.22-.56l.61-3.93Zm21.47,0a.58.58,0,0,1-.13-.58.55.55,0,0,1,.43-.38l3.52-.57,1.57-3.56a.55.55,0,0,1,.49-.32.53.53,0,0,1,.48.32l1.58,3.56,3.52.57a.54.54,0,0,1,.42.38.58.58,0,0,1-.12.58l-2.56,2.78.61,3.93a.6.6,0,0,1-.23.56.49.49,0,0,1-.3.1.48.48,0,0,1-.26-.07l-3.14-1.84-3.14,1.84a.51.51,0,0,1-.57,0,.59.59,0,0,1-.22-.56l.61-3.93Zm14.27,19.09a1.25,1.25,0,0,1,.09,1.1,21.11,21.11,0,0,1-39.16-.06,1.23,1.23,0,0,1,.1-1.09,1.08,1.08,0,0,1,.91-.52h0l37.13.05A1.1,1.1,0,0,1,473.85,160.85Z"/><path class="cls-8" d="M333.9,198.22a40,40,0,0,1-29.29-12.83,45.81,45.81,0,0,1,0-62.07,39.85,39.85,0,0,1,58.6,0,45.79,45.79,0,0,1,0,62.07,40,40,0,0,1-29.3,12.83Zm0-79.17a32.19,32.19,0,0,0-23.57,10.33,36.86,36.86,0,0,0,0,50,32.07,32.07,0,0,0,47.14,0,36.86,36.86,0,0,0,0-49.94A32.21,32.21,0,0,0,333.9,119.05Zm0,57a19.67,19.67,0,0,1-18.46-12.49,3.56,3.56,0,0,1,0-2.61,3.31,3.31,0,0,1,1.74-1.84,2.92,2.92,0,0,1,1.23-.26,3.21,3.21,0,0,1,3,2.1,13.55,13.55,0,0,0,25,0,3.22,3.22,0,0,1,3-2.06,3,3,0,0,1,1.28.29,3.32,3.32,0,0,1,1.71,1.87,3.59,3.59,0,0,1,0,2.6A19.8,19.8,0,0,1,333.94,176.09Zm15.79-27.92a2.93,2.93,0,0,1-2.83-3,1.91,1.91,0,1,0-3.81,0,2.83,2.83,0,1,1-5.66,0,7.58,7.58,0,1,1,15.13,0A2.93,2.93,0,0,1,349.73,148.17Zm-21.17,0a2.92,2.92,0,0,1-2.83-3,1.91,1.91,0,1,0-3.81,0,2.83,2.83,0,1,1-5.66,0,7.58,7.58,0,1,1,15.13,0A2.92,2.92,0,0,1,328.56,148.14Z"/><path class="cls-8" d="M362.55,184.69c15.79-16.73,15.79-43.95,0-60.68a39,39,0,0,0-57.29,0c-15.8,16.73-15.8,44,0,60.69A39,39,0,0,0,362.55,184.69Zm-52.88-56a33,33,0,0,1,48.46,0c13.36,14.15,13.35,37.18,0,51.33a33,33,0,0,1-48.46,0C296.31,165.87,296.32,142.84,309.67,128.69Zm28.68,16.48a6.66,6.66,0,1,1,13.29,0,1.91,1.91,0,1,1-3.82,0,2.83,2.83,0,1,0-5.65,0,1.91,1.91,0,1,1-3.82,0Zm-21.17,0a6.66,6.66,0,1,1,13.29,0,1.91,1.91,0,1,1-3.82,0,2.83,2.83,0,1,0-5.65,0,1.91,1.91,0,1,1-3.82,0Zm-.84,18.08a2.47,2.47,0,0,1,1.23-3.17,2.15,2.15,0,0,1,.88-.19,2.31,2.31,0,0,1,2.12,1.5,14.45,14.45,0,0,0,26.68,0,2.25,2.25,0,0,1,3-1.27,2.48,2.48,0,0,1,1.19,3.19,18.92,18.92,0,0,1-35.11-.06Z"/><path class="cls-6" d="M366.59,339.22c0-6.09-5.42-11-12.11-11H341.89c-6.69,0-12.11,4.93-12.11,11v76.7c0,6.08,5.42,11,12.11,11h12.59c6.69,0,12.11-4.93,12.11-11Z"/><path class="cls-9" d="M354.48,328.2H343.66c6.68,0,12.11,4.93,12.11,11v76.7c0,6.08-5.43,11-12.11,11h10.82c6.69,0,12.11-4.93,12.11-11v-76.7C366.59,333.13,361.17,328.2,354.48,328.2Z"/><path class="cls-8" d="M302.09,366.25c.1-6.54-5.66-11.93-12.86-12l-10.75-.15c-7.19-.1-13.1,5.12-13.19,11.66l-.7,49.09c-.09,6.55,5.67,11.93,12.87,12l10.74.16c7.2.1,13.11-5.13,13.2-11.67Z"/><path class="cls-10" d="M289.23,354.22l-10.75-.15h0c7.17.12,12.91,5.5,12.82,12l-.69,49.09c-.09,6.53-6,11.74-13.16,11.66h0l10.74.16c7.2.1,13.11-5.12,13.2-11.67l.69-49.09C302.19,359.71,296.43,354.32,289.23,354.22Z"/><path class="cls-1" d="M431.09,309.93c0-6.08-5.43-11-12.12-11H406.39c-6.69,0-12.12,4.93-12.12,11v106c0,6.08,5.43,11,12.12,11H419c6.69,0,12.12-4.93,12.12-11Z"/><path class="cls-11" d="M419,298.92H408.15c6.69,0,12.11,4.93,12.11,11v106c0,6.08-5.42,11-12.11,11H419c6.69,0,12.12-4.93,12.12-11v-106C431.09,303.85,425.66,298.92,419,298.92Z"/><path class="cls-1" d="M495.58,248.71c0-6.08-5.42-11-12.11-11H470.88c-6.69,0-12.11,4.93-12.11,11V415.92c0,6.08,5.42,11,12.11,11h12.59c6.69,0,12.11-4.93,12.11-11Z"/><path class="cls-11" d="M483.47,237.7H472.65c6.69,0,12.11,4.93,12.11,11V415.92c0,6.08-5.42,11-12.11,11h10.82c6.69,0,12.11-4.93,12.11-11V248.71C495.58,242.63,490.16,237.7,483.47,237.7Z"/><path class="cls-12" d="M149.23,80.68C143.51,72.35,139,65.78,139,58.24c0-10,2.88-15,5.93-20.18,3.34-5.7,6.78-11.58,6.78-23.26,0-1.36,0-2.71,0-4A3.11,3.11,0,0,0,150,8.06a3.24,3.24,0,0,0-3.24.17A43.6,43.6,0,0,1,123.1,14.8c-11.9,0-22.9-4.28-29.4-11.45a3.36,3.36,0,0,0-4.76,0c-6.5,7.17-17.5,11.45-29.41,11.45A44.69,44.69,0,0,1,38.8,9.93a3.26,3.26,0,0,0-3.12.06,3.07,3.07,0,0,0-1.56,2.64c0,.72,0,1.44,0,2.17,0,11.68,3.45,17.56,6.78,23.26,3,5.21,5.94,10.14,5.94,20.18,0,7.62-4.08,14.21-9.24,22.56C29.41,94,18.21,112.12,18.21,145.12a94.46,94.46,0,0,0,14.7,51.29,3.19,3.19,0,0,0,2.69,1.46H88.14a3.15,3.15,0,0,0,3.18-3.1v-6.21h6.36v6.21a3.14,3.14,0,0,0,3.17,3.1h52.54a3.18,3.18,0,0,0,2.69-1.46,94.46,94.46,0,0,0,14.7-51.29C170.78,112,158.32,93.91,149.23,80.68Z"/><g class="cls-4"><path class="cls-13" d="M149.23,80.68C143.51,72.36,139,65.78,139,58.24c0-10,2.88-15,5.93-20.18,3.34-5.7,6.78-11.58,6.78-23.26,0-1.36,0-2.71,0-4A3.11,3.11,0,0,0,150,8.06a3.24,3.24,0,0,0-3.24.17,38.26,38.26,0,0,1-7.85,3.88c0,.89,0,1.78,0,2.69,0,11.68-3.45,17.56-6.78,23.26-3.05,5.21-5.94,10.14-5.94,20.18,0,7.54,4.52,14.12,10.24,22.44C145.51,93.91,158,112,158,145.12c0,16.65-5.9,37.77-14,52.75h9.46a3.18,3.18,0,0,0,2.69-1.46,94.46,94.46,0,0,0,14.7-51.29C170.78,112,158.32,93.91,149.23,80.68Z"/></g><path class="cls-6" d="M19.87,124.36a125.86,125.86,0,0,0-1.66,20.74,95.75,95.75,0,0,0,9.73,42.52c17.43,2.71,47.61,4.11,63.38,1.54v-.62h6.36v.83c16.55,2.35,46.78.8,63.48-2a95.9,95.9,0,0,0,9.62-42.29,113.11,113.11,0,0,0-1.84-20.74Z"/><path class="cls-8" d="M149.23,80.72l0,0C143.48,72.35,139,65.78,139,58.24c0-10,2.88-15,5.93-20.18,3.34-5.7,6.78-11.58,6.78-23.26,0-1.36,0-2.71,0-4a3.11,3.11,0,0,0-1.71-2.7,3.24,3.24,0,0,0-3.24.17,43.62,43.62,0,0,1-23.63,6.57c-11.9,0-22.9-4.28-29.4-11.45a3.36,3.36,0,0,0-4.76,0C82.4,10.52,71.41,14.8,59.5,14.8A44.69,44.69,0,0,1,38.77,9.93a3.26,3.26,0,0,0-3.12.06,3.07,3.07,0,0,0-1.56,2.64c0,.72,0,1.44,0,2.17,0,11.68,3.45,17.56,6.78,23.26,3,5.21,5.94,10.14,5.94,20.18,0,7.62-4.08,14.21-9.24,22.56l-.46.75C76.7,95.27,108.42,96.86,149.23,80.72Z"/><g class="cls-14"><path class="cls-15" d="M170.78,145.1a113.11,113.11,0,0,0-1.84-20.74H156.13A113.11,113.11,0,0,1,158,145.1c0,14.19-4,31.05-10.24,44,5-.47,9.57-1.05,13.43-1.69A95.9,95.9,0,0,0,170.78,145.1Z"/></g><g class="cls-16"><path class="cls-17" d="M149.2,80.68C143.48,72.35,139,65.78,139,58.24c0-10,2.88-15,5.93-20.18,3.34-5.7,6.78-11.58,6.78-23.26,0-1.36,0-2.71,0-4a3.11,3.11,0,0,0-1.71-2.7,3.24,3.24,0,0,0-3.24.17,38.09,38.09,0,0,1-7.86,3.88c0,.89,0,1.78,0,2.69,0,11.68-3.45,17.56-6.78,23.26-3.05,5.21-5.94,10.14-5.94,20.18,0,7.54,4.52,14.11,10.24,22.44l2.76,3.69c3.31-1.11,6.65-2.29,10.08-3.65Z"/></g><ellipse class="cls-2" cx="164.48" cy="124.38" rx="23.99" ry="23.42"/><path class="cls-7" d="M164.48,151.14c-15.11,0-27.41-12-27.41-26.76s12.3-26.76,27.41-26.76,27.42,12,27.42,26.76S179.6,151.14,164.48,151.14Zm0-46.83A20.08,20.08,0,1,0,185,124.38,20.34,20.34,0,0,0,164.48,104.31Z"/><path class="cls-2" d="M153.92,157.83H3.43V121h185v3.07C188.47,142.73,173,157.83,153.92,157.83Z"/><path class="cls-7" d="M188.47,117.69H3.43A3.39,3.39,0,0,0,0,121v36.8a3.39,3.39,0,0,0,3.43,3.35h150.5c20.94,0,38-16.64,38-37.07V121A3.39,3.39,0,0,0,188.47,117.69Zm-34.54,36.79H6.85v-30.1H20.56v13.38a3.43,3.43,0,0,0,6.85,0V124.38H37.69v20.07a3.43,3.43,0,0,0,6.86,0V124.38H54.83v13.38a3.43,3.43,0,0,0,6.85,0V124.38H72v20.07a3.43,3.43,0,0,0,6.85,0V124.38H89.1v13.38a3.43,3.43,0,0,0,6.85,0V124.38h10.28v20.07a3.43,3.43,0,0,0,6.85,0V124.38h10.28v13.38a3.43,3.43,0,0,0,6.86,0V124.38H140.5v20.07a3.43,3.43,0,0,0,6.85,0V124.38h10.28v13.38a3.43,3.43,0,0,0,6.85,0V124.38H185C184.89,141,171,154.48,153.93,154.48Z"/></g></g></svg>