<?xml version="1.0" encoding="utf-8"?>
<!-- Generator: Adobe Illustrator 23.0.4, SVG Export Plug-In . SVG Version: 6.00 Build 0)  -->
<svg version="1.1" id="Layer_1" xmlns="http://www.w3.org/2000/svg" xmlns:xlink="http://www.w3.org/1999/xlink" x="0px" y="0px"
	 viewBox="0 0 495.8 425.9" style="enable-background:new 0 0 495.8 425.9;" xml:space="preserve">
<style type="text/css">
	.st0{opacity:0.9;fill:#F4DBD4;enable-background:new    ;}
	.st1{fill:#B680BA;}
	.st2{fill:#E5C8C1;}
	.st3{opacity:0.52;}
	.st4{opacity:0.9;fill:#F9AB93;enable-background:new    ;}
	.st5{opacity:0.87;fill:#96679E;enable-background:new    ;}
	.st6{fill:#96679E;}
	.st7{fill:#864789;}
	.st8{fill:#F9AB93;}
	.st9{fill:#F7F1F0;}
	.st10{fill:#FFE167;}
	.st11{fill:#F5B400;}
	.st12{fill:#E49306;}
	.st13{fill:#F75959;}
	.st14{fill:#ED4040;}
	.st15{fill:#9EB25D;}
	.st16{fill:#83933E;}
	.st17{fill:#F2D491;}
	.st18{fill:#FFFFFF;}
	.st19{fill:#F28338;}
	.st20{fill:#999999;}
	.st21{fill:#F99958;}
	.st22{fill:#ED701B;}
	.st23{fill:#CCCCCC;}
	.st24{fill:#B1DE60;}
	.st25{opacity:0.1;enable-background:new    ;}
	.st26{fill:#91B54E;}
	.st27{fill:#A9D45C;}
</style>
<title>feature2</title>
<g>
	<g id="Layer_1-2">
		<path class="st0" d="M464.6,28.2H31.2C14,28.2,0,42.2,0,59.4v335.4c0,17.2,14,31.2,31.2,31.2c0,0,0,0,0,0h433.4
			c17.2,0,31.1-14,31.1-31.2V59.4C495.8,42.2,481.8,28.2,464.6,28.2z M452.9,47.8c7.2,0,13.1,5.9,13.1,13.1
			c0,7.2-5.9,13.1-13.1,13.1c-7.2,0-13.1-5.9-13.1-13.1C439.9,53.7,445.7,47.8,452.9,47.8C452.9,47.8,452.9,47.8,452.9,47.8z
			 M385.9,47.8c7.2,0,13.1,5.9,13.1,13.1c0,7.2-5.9,13.1-13.1,13.1c-7.2,0-13.1-5.9-13.1-13.1C372.9,53.7,378.7,47.8,385.9,47.8
			C385.9,47.8,385.9,47.8,385.9,47.8L385.9,47.8z M318.9,47.8c7.2,0,13.1,5.9,13.1,13.1c0,7.2-5.9,13.1-13.1,13.1
			c-7.2,0-13.1-5.9-13.1-13.1C305.9,53.7,311.7,47.8,318.9,47.8C318.9,47.8,318.9,47.8,318.9,47.8L318.9,47.8z M251.9,47.8
			c7.2,0,13.1,5.9,13.1,13.1c0,7.2-5.9,13.1-13.1,13.1c-7.2,0-13.1-5.9-13.1-13.1C238.9,53.7,244.7,47.8,251.9,47.8L251.9,47.8z
			 M184.9,47.8c7.2,0,13.1,5.9,13,13.1s-5.9,13.1-13.1,13c-7.2,0-13-5.9-13.1-13.1C171.8,53.7,177.7,47.8,184.9,47.8L184.9,47.8z
			 M117.9,47.8c7.2,0,13,5.9,13,13.1c0,7.2-5.9,13-13.1,13c-7.2,0-13-5.9-13-13.1C104.8,53.7,110.6,47.8,117.9,47.8L117.9,47.8z
			 M50.9,47.8c7.2,0,13,5.9,13,13.1c0,7.2-5.9,13-13.1,13c-7.2,0-13-5.9-13-13.1c0-7.2,5.8-13.1,13-13.1
			C50.8,47.8,50.8,47.8,50.9,47.8L50.9,47.8z"/>
		<path class="st1" d="M464.6,28.2H31.2C14,28.2,0,42.2,0,59.4v40.5h495.8V59.4C495.8,42.2,481.8,28.2,464.6,28.2z M50.8,73.9
			c-7.2,0-13.1-5.9-13.1-13.1s5.9-13.1,13.1-13.1s13.1,5.9,13.1,13.1c0,0,0,0,0,0C63.9,68.1,58.1,73.9,50.8,73.9
			C50.9,73.9,50.9,73.9,50.8,73.9z M117.8,73.9c-7.2,0-13-5.9-13-13.1c0-7.2,5.9-13,13.1-13c7.2,0,13,5.9,13,13.1
			C131,68.1,125.2,73.9,117.8,73.9C117.9,73.9,117.9,73.9,117.8,73.9L117.8,73.9z M184.9,73.9c-7.2,0-13-5.9-13-13.1
			c0-7.2,5.9-13,13.1-13c7.2,0,13,5.9,13,13.1C198,68.1,192.1,73.9,184.9,73.9C184.9,73.9,184.9,73.9,184.9,73.9L184.9,73.9z
			 M251.9,73.9c-7.2,0-13-5.9-13-13.1c0-7.2,5.9-13,13.1-13c7.2,0,13,5.9,13,13.1c0,7.2-5.8,13.1-13,13.1
			C251.9,73.9,251.9,73.9,251.9,73.9L251.9,73.9z M318.9,73.9c-7.2,0-13-5.9-13-13.1c0-7.2,5.9-13,13.1-13c7.2,0,13,5.9,13,13.1
			c0,7.2-5.8,13.1-13,13.1C318.9,73.9,318.9,73.9,318.9,73.9L318.9,73.9z M385.9,73.9c-7.2,0-13-5.9-13-13.1c0-7.2,5.9-13,13.1-13
			c7.2,0,13,5.9,13,13.1c0,7.2-5.8,13.1-13,13.1C386,73.9,385.9,73.9,385.9,73.9L385.9,73.9z M452.9,73.9c-7.2,0-13-5.9-13-13.1
			c0-7.2,5.9-13,13.1-13c7.2,0,13,5.9,13,13.1c0,7.2-5.8,13.1-13,13.1C453,73.9,452.9,73.9,452.9,73.9L452.9,73.9z"/>
		<rect y="99.9" class="st2" width="495.8" height="6.5"/>
		<g class="st3">
			<path class="st4" d="M464.6,28.2h-10.1c17.2,0,31.2,14,31.1,31.2v335.4c0,17.2-13.9,31.2-31.1,31.2h10.1
				c17.2,0,31.1-14,31.1-31.2V59.4C495.8,42.2,481.8,28.2,464.6,28.2z"/>
		</g>
		<path class="st5" d="M464.6,28.2h-10.3c17.2,0,31.2,14,31.2,31.2v40.5h10.3V59.4C495.8,42.2,481.8,28.2,464.6,28.2z"/>
		<path class="st6" d="M53.7,60.9c0,5.2-3.1,10-7.9,12c1.6,0.7,3.4,1,5.1,1c7.2,0,13.1-5.8,13.1-13c0-7.2-5.8-13.1-13-13.1
			c-1.8,0-3.6,0.4-5.2,1.1C50.6,50.9,53.7,55.6,53.7,60.9z"/>
		<path class="st6" d="M452.9,47.8c-1.8,0-3.5,0.3-5.1,1c6.6,2.9,9.7,10.6,6.8,17.2c-1.3,3.1-3.8,5.5-6.8,6.8
			c6.6,2.8,14.3-0.2,17.2-6.9c2.8-6.6-0.2-14.3-6.9-17.2C456.4,48.1,454.7,47.7,452.9,47.8L452.9,47.8z"/>
		<path class="st6" d="M321.7,60.9c0,5.2-3.1,9.9-7.9,12c6.6,2.9,14.3-0.2,17.2-6.8c2.9-6.6-0.2-14.3-6.8-17.2
			c-3.3-1.4-7.1-1.4-10.4,0C318.6,50.9,321.7,55.6,321.7,60.9z"/>
		<path class="st6" d="M187.7,60.9c0,5.2-3.1,10-7.9,12c6.6,2.8,14.3-0.2,17.2-6.9c2.8-6.6-0.2-14.3-6.9-17.2
			c-1.6-0.7-3.4-1.1-5.2-1.1c-1.8,0-3.5,0.3-5.1,1C184.6,50.9,187.7,55.6,187.7,60.9z"/>
		<path class="st6" d="M120.7,60.9c0,5.2-3.2,10-8,12c1.6,0.7,3.4,1,5.1,1c7.2,0,13.1-5.8,13.1-13s-5.8-13.1-13-13.1
			c-1.8,0-3.6,0.4-5.2,1.1C117.5,50.8,120.7,55.6,120.7,60.9z"/>
		<path class="st6" d="M254.7,60.9c0,5.2-3.1,10-7.9,12c6.6,2.8,14.3-0.2,17.2-6.9s-0.2-14.3-6.9-17.2c-1.6-0.7-3.4-1.1-5.2-1.1
			c-1.8,0-3.5,0.3-5.1,1C251.6,50.9,254.7,55.6,254.7,60.9z"/>
		<path class="st6" d="M388.7,60.9c0,5.2-3.1,9.9-7.9,12c6.6,2.9,14.3-0.2,17.2-6.8c2.9-6.6-0.2-14.3-6.8-17.2
			c-3.3-1.4-7.1-1.4-10.4,0C385.6,50.9,388.7,55.6,388.7,60.9z"/>
		<path class="st7" d="M50.8,0C33.9,0,20,13.4,19.3,30.3l-0.1,1.4l1.3-0.6c2.1-1,4.2-1.7,6.5-2.2l0.6-0.1l0.1-0.6
			C29.6,15.4,41.6,6.5,54.4,8.5c9.9,1.5,17.8,9.2,19.6,19c0.2,1.3,0.4,2.7,0.4,4.1c0,8.6-4.7,16.4-12.2,20.6
			c-6.6,3.7-14.7,3.9-21.5,0.6L40,52.4l-0.4,0.7c-1.2,2-1.8,4.3-1.8,6.7v0.6l0.5,0.2c4,1.7,8.3,2.6,12.6,2.6
			c17.4,0,31.6-14.1,31.6-31.5c0,0,0-0.1,0-0.1c0-1.5-0.1-2.9-0.3-4.4C80,11.6,66.6,0,50.8,0z"/>
		<path class="st7" d="M484.1,27.3L484.1,27.3c-2.4-17.3-18.4-29.4-35.7-27c-14,2-25,12.9-26.9,26.9l-0.1,1h8.2l0.1-0.7
			c2.2-12.8,14.4-21.3,27.2-19.1c9.7,1.7,17.4,9.3,19.1,19.1c0.3,1.3,0.4,2.7,0.4,4.1c0,8.5-4.6,16.4-12,20.5l-0.2,0.1
			c-6.6,3.6-14.4,3.8-21.2,0.6l-0.1,0h0l-0.7-0.7l-0.6,1c-1.2,2-1.8,4.3-1.9,6.7v0.5l0.5,0.2l0.2,0.1c3.9,1.7,8.2,2.6,12.5,2.5
			c4.9,0,9.8-1.2,14.2-3.4l0.1-0.1l0,0h0.1c10.6-5.4,17.2-16.3,17.2-28.1c0-1.4-0.1-2.8-0.3-4.1L484.1,27.3z"/>
		<path class="st7" d="M417.1,27.3L417.1,27.3c-2.4-17.3-18.4-29.4-35.7-27c-14,2-25,12.9-26.9,26.9l-0.1,1h8.2l0.1-0.7
			c2.2-12.8,14.4-21.3,27.2-19.1c9.7,1.7,17.4,9.3,19.1,19.1c0.3,1.3,0.4,2.7,0.4,4.1c0,8.5-4.6,16.4-12,20.5l-0.2,0.1
			c-6.6,3.6-14.4,3.8-21.2,0.6l-0.1,0h0l-0.7-0.7l-0.6,1c-1.2,2-1.8,4.3-1.9,6.7v0.5l0.5,0.2l0.2,0.1c3.9,1.7,8.2,2.6,12.5,2.5
			c4.9,0,9.8-1.2,14.2-3.4l0.1-0.1l0,0h0.1c10.6-5.4,17.2-16.3,17.1-28.1c0-1.4-0.1-2.8-0.3-4.1L417.1,27.3z"/>
		<path class="st7" d="M350.2,27.3L350.2,27.3c-2.4-17.3-18.4-29.4-35.7-27c-14,2-25,12.9-26.9,26.9l-0.1,1h8.2l0.1-0.7
			c2.2-12.8,14.4-21.3,27.2-19.1c9.7,1.7,17.4,9.3,19.1,19.1c0.3,1.3,0.4,2.7,0.4,4.1c0,8.5-4.6,16.4-12,20.5l-0.2,0.1
			c-6.6,3.6-14.4,3.8-21.2,0.6l-0.1,0l0,0l-0.7-0.6l-0.5,0.9c-1.2,2-1.8,4.3-1.9,6.7v0.5l0.5,0.2l0.2,0.1c3.9,1.7,8.2,2.6,12.5,2.5
			c4.9,0,9.8-1.2,14.2-3.4l0.1-0.1l0,0h0.1c10.5-5.4,17.2-16.3,17.1-28.1c0-1.4-0.1-2.8-0.3-4.1L350.2,27.3z"/>
		<path class="st7" d="M283.2,27.3L283.2,27.3c-2.4-17.3-18.4-29.4-35.6-27c-14,1.9-25,12.9-26.9,26.9l-0.1,1h8.2l0.1-0.7
			C231,14.8,243.2,6.2,256,8.5c9.7,1.7,17.3,9.3,19.1,19.1c0.2,1.3,0.4,2.7,0.4,4.1c0,8.5-4.6,16.4-12.1,20.5l-0.2,0.1
			c-6.6,3.6-14.4,3.8-21.2,0.6l-0.1,0l0,0l-0.7-0.7l-0.6,1c-1.2,2-1.8,4.3-1.9,6.7v0.5l0.5,0.2l0.2,0.1c3.9,1.7,8.2,2.6,12.4,2.5
			c4.9,0,9.8-1.2,14.2-3.4l0.1-0.1l0,0h0.1c10.5-5.4,17.2-16.3,17.1-28.1c0-1.4-0.1-2.8-0.3-4.1L283.2,27.3z"/>
		<path class="st7" d="M216.2,27.3L216.2,27.3c-2.4-17.3-18.4-29.4-35.7-27c-14,2-25,12.9-26.9,26.9l-0.1,1h8.2l0.1-0.7
			c2.2-12.8,14.4-21.3,27.2-19.1c9.7,1.7,17.3,9.3,19.1,19.1c0.2,1.3,0.4,2.7,0.4,4.1c0,8.5-4.6,16.4-12.1,20.5l-0.2,0.1
			c-6.6,3.6-14.5,3.8-21.2,0.6l-0.1,0l0,0l-0.7-0.7l-0.6,1c-1.2,2-1.8,4.3-1.9,6.7v0.5l0.5,0.2l0.2,0.1c3.9,1.7,8.2,2.6,12.4,2.5
			c4.9,0,9.8-1.2,14.2-3.4l0.1-0.1l0,0h0.1c10.5-5.4,17.2-16.3,17.1-28.1c0-1.4-0.1-2.8-0.3-4.1L216.2,27.3z"/>
		<path class="st7" d="M149.2,27.3L149.2,27.3c-2.4-17.3-18.4-29.4-35.7-27c-14,2-25,12.9-26.9,26.9l-0.1,1h8.2l0.1-0.7
			C97.1,14.8,109.3,6.2,122,8.5c9.7,1.7,17.3,9.3,19.1,19.1c0.2,1.3,0.4,2.7,0.4,4.1c0,8.5-4.6,16.4-12.1,20.5l-0.2,0.1
			c-6.6,3.6-14.5,3.8-21.2,0.6l-0.1,0l0,0l-0.7-0.7l-0.6,1c-1.2,2-1.8,4.3-1.8,6.7v0.5l0.5,0.2l0.2,0.1c3.9,1.7,8.2,2.6,12.4,2.5
			c4.9,0,9.8-1.2,14.2-3.4l0.1-0.1l0,0h0.1c10.5-5.4,17.2-16.3,17.1-28.1c0-1.4-0.1-2.8-0.3-4.1L149.2,27.3z"/>
		<path class="st8" d="M62.2,239.9h33.9c6.6,0,12,5.4,12,12v33.9c0,6.6-5.4,12-12,12H62.2c-6.6,0-12-5.4-12-12v-33.9
			C50.2,245.3,55.6,239.9,62.2,239.9z"/>
		<path class="st8" d="M62.2,332.7h33.9c6.6,0,12,5.4,12,12v33.9c0,6.6-5.4,12-12,12H62.2c-6.6,0-12-5.4-12-12v-33.9
			C50.2,338.1,55.6,332.7,62.2,332.7z"/>
		<path class="st9" d="M55.7,239.9h33.9c6.6,0,12,5.4,12,12v33.9c0,6.6-5.4,12-12,12H55.7c-6.6,0-12-5.4-12-12v-33.9
			C43.6,245.3,49,239.9,55.7,239.9z"/>
		<path class="st9" d="M55.7,332.7h33.9c6.6,0,12,5.4,12,12v33.9c0,6.6-5.4,12-12,12H55.7c-6.6,0-12-5.4-12-12v-33.9
			C43.6,338.1,49,332.7,55.7,332.7z"/>
		<path class="st10" d="M33.4,334.4L26,364.6l63.9,15.7l3-12.2c-0.7,0-1.3-0.1-2-0.2c-3.2-0.8-5.4-3.3-4.9-5.7s3.7-3.6,6.9-2.8
			c0.7,0.2,1.3,0.4,1.9,0.7l2.4-10L33.4,334.4z"/>
		<path class="st11" d="M97.3,350.1l-33.9-22.3c0,0-22.3-4.3-30,6.6L97.3,350.1z"/>
		<path class="st12" d="M70.1,353.6c-0.7,2.8,1,5.7,3.9,6.4s5.7-1,6.4-3.9c0.7-2.8-1-5.7-3.9-6.4c0,0,0,0,0,0
			C73.7,349.1,70.8,350.8,70.1,353.6z"/>
		<path class="st12" d="M54.6,356.6c-0.3,1.2,0.5,2.4,1.6,2.6c1.2,0.3,2.4-0.5,2.6-1.6c0.3-1.2-0.5-2.4-1.6-2.6
			C56.1,354.7,54.9,355.4,54.6,356.6C54.6,356.6,54.6,356.6,54.6,356.6z"/>
		<path class="st12" d="M64.6,367.3c-0.4,1.5,0.5,3,2,3.4c1.5,0.4,3-0.5,3.4-2c0.4-1.5-0.5-3-2-3.4c0,0,0,0,0,0
			C66.5,364.9,65,365.8,64.6,367.3C64.6,367.3,64.6,367.3,64.6,367.3z"/>
		<path class="st12" d="M37.5,345.9c-0.7,3,1,5.9,4,6.7c3,0.7,5.9-1,6.7-4c0.7-3-1-5.9-4-6.7c0,0,0,0,0,0
			C41.2,341.2,38.3,342.9,37.5,345.9z"/>
		<path class="st12" d="M36.4,360.8c-0.6,2.3,0.8,4.6,3.1,5.2c2.3,0.6,4.6-0.8,5.2-3.1s-0.8-4.6-3.1-5.2c0,0,0,0,0,0
			C39.3,357.1,36.9,358.5,36.4,360.8z"/>
		<path class="st12" d="M81,372.5c-0.3,1.3,0.5,2.6,1.7,2.9c1.3,0.3,2.6-0.5,2.9-1.7c0.3-1.3-0.5-2.6-1.7-2.9c0,0,0,0,0,0
			C82.6,370.5,81.3,371.3,81,372.5z"/>
		<path class="st13" d="M107.8,264.7c-2.5,3.1-5.9,5.4-9.7,6.4c-11.5,3.5-14.4,4.9-25,10.9c-2.2,1.3-4.6,2-7.1,2
			c-4.2,0-7.9-3.1-9.5-7c-1-2.4-1.3-5-1-7.6c0.2-1.6,0.5-3.1,1-4.6c1.3-4,2.3-7.7,3.3-11.7c1.2-4.7,1.3-9.8,2.5-14.4
			s3.9-9.1,8.2-11.4c4.7-2.5,10.6-1.8,15.4,0.5s9,5.8,12.8,9.5c1.2,1.2,2.4,2.4,3.5,3.6c2.5,2.6,4.6,5.6,6.1,8.9
			C110.6,254.5,110.9,260.5,107.8,264.7z"/>
		<path class="st14" d="M107.8,264.7c-2.5,3.1-5.9,5.4-9.7,6.4c-11.5,3.5-14.4,4.9-25,10.9c-2.2,1.3-4.6,2-7.1,2
			c-4.2,0-7.9-3.1-9.5-7c-1-2.4-1.3-5-1-7.6c0.1,0.5,0.3,1,0.5,1.5c1,2.3,2.9,4.2,5.2,5.3c3,1.4,6.7,0.7,9.7-0.7s5.7-3.6,8.7-5.1
			c4.1-2.2,8.7-3.3,12.9-5s8.5-4.4,10.6-8.5c1.6-3.6,1.9-7.6,0.8-11.4c-0.4-1.6-1-3.1-1.6-4.6c2.5,2.6,4.6,5.6,6.1,8.9
			C110.6,254.5,110.9,260.5,107.8,264.7z"/>
		<path class="st15" d="M96.4,237.8c1.6,4.4,2.4,5.7,1.3,9.8l-1.1-1.4c-2.2-2.8-3.2-4.4-3.4-8.4c-3.1,1.3-6.6,1-9.4-0.7
			c2.4-2.8,4.8-3,8.5-2.4c-3.2-3.9-4.2-6.4-4.8-11.3l0,0c4.6,2.6,6.4,5.7,6.7,11c1.4-5.2,1.3-7,7.2-7.3l0,0
			c-0.3,3.1-0.6,6.1-4.9,8.3c4.7-1,7.1,0.3,10.9,4.3C102.9,240.8,100.7,240.7,96.4,237.8z"/>
		<path class="st16" d="M101.3,227c-2.9,2.7-5.3,5.8-7.3,9.2c-1.7-4.5-3.9-8.8-6.6-12.9c4.6,2.6,6.4,5.7,6.7,11
			C95.6,229.1,95.5,227.3,101.3,227z"/>
		<path class="st16" d="M97.7,247.6l-1.1-1.4c0.5-2.8,0.4-5.6-0.2-8.4C98,242.2,98.8,243.5,97.7,247.6z"/>
		<path class="st17" d="M67.9,238.1c-0.1,0.3,0,0.5,0.2,0.7c0.3,0.2,0.9,0.1,1.4-0.3c0.5-0.4,0.7-1,0.7-1.6c0-0.3-0.3-0.6-0.6-0.6
			c0,0,0,0,0,0C69,236.2,68,237.2,67.9,238.1z"/>
		<path class="st17" d="M78.1,235.4c-0.1,0.3,0,0.5,0.2,0.7c0.5,0.2,1.1,0.1,1.4-0.3c0.5-0.4,0.7-1,0.8-1.6c0-0.3-0.3-0.6-0.6-0.6
			C79,233.8,78.3,234.5,78.1,235.4z"/>
		<path class="st17" d="M66.7,250.6c-0.1,0.3,0,0.5,0.2,0.7c0.3,0.2,0.9,0.1,1.4-0.3c0.5-0.4,0.7-1,0.7-1.6c0-0.3-0.3-0.6-0.6-0.6
			c0,0,0,0,0,0C67.6,249,66.9,249.7,66.7,250.6z"/>
		<path class="st17" d="M87.3,243.5c-0.1,0.3,0,0.5,0.2,0.7c0.5,0.2,1.1,0.1,1.4-0.3c0.5-0.4,0.7-1,0.8-1.6c0-0.3-0.3-0.6-0.6-0.6
			c0,0,0,0,0,0C88.2,241.9,87.5,242.6,87.3,243.5z"/>
		<path class="st17" d="M76.2,259.6c-0.1,0.3,0,0.5,0.2,0.7c0.5,0.2,1.1,0.1,1.4-0.3c0.5-0.4,0.7-1,0.8-1.6c0-0.3-0.3-0.6-0.6-0.6
			C77.1,258,76.4,258.7,76.2,259.6z"/>
		<path class="st17" d="M64.4,276c-0.1,0.3,0,0.5,0.2,0.7c0.5,0.2,1.1,0.1,1.4-0.3c0.5-0.4,0.7-1,0.7-1.6c0-0.3-0.3-0.6-0.6-0.6
			c0,0,0,0,0,0C65.3,274.4,64.6,275.1,64.4,276z"/>
		<path class="st17" d="M87.8,267.7c-0.1,0.3,0,0.5,0.2,0.7c0.3,0.2,0.9,0.1,1.4-0.3c0.5-0.4,0.7-1,0.8-1.6c0-0.3-0.3-0.6-0.6-0.6
			C88.7,266.1,88,266.8,87.8,267.7z"/>
		<path class="st17" d="M76.8,271.8c-0.1,0.3,0,0.5,0.2,0.7c0.3,0.2,0.9,0.1,1.4-0.3c0.5-0.4,0.7-1,0.7-1.6c0-0.3-0.3-0.6-0.6-0.6
			c0,0,0,0,0,0C77.7,270.2,77,270.9,76.8,271.8z"/>
		<path class="st17" d="M64.4,262.7c-0.1,0.3,0,0.5,0.2,0.7c0.5,0.2,1.1,0.1,1.4-0.3c0.5-0.4,0.7-1,0.7-1.6c0-0.3-0.3-0.6-0.6-0.6
			c0,0,0,0,0,0C65.3,261.1,64.6,261.8,64.4,262.7z"/>
		<path class="st17" d="M98,264c-0.1,0.3,0,0.5,0.2,0.7c0.5,0.2,1.1,0.1,1.4-0.3c0.5-0.4,0.7-1,0.8-1.6c0-0.3-0.3-0.6-0.6-0.6
			c0,0,0,0,0,0C98.9,262.4,98.2,263.1,98,264z"/>
		<path class="st17" d="M99.2,252.9c-0.1,0.3,0,0.5,0.2,0.7c0.5,0.2,1.1,0.1,1.4-0.3c0.5-0.4,0.7-1,0.8-1.6c0-0.3-0.3-0.6-0.6-0.6
			c0,0,0,0,0,0C100.1,251.3,99.4,252,99.2,252.9z"/>
		<path class="st8" d="M239.7,150.5h33.9c6.6,0,12,5.4,12,12v33.9c0,6.6-5.4,12-12,12h-33.9c-6.6,0-12-5.4-12-12v-33.9
			C227.7,155.9,233.1,150.5,239.7,150.5z"/>
		<path class="st8" d="M239.7,332.7h33.9c6.6,0,12,5.4,12,12v33.9c0,6.6-5.4,12-12,12h-33.9c-6.6,0-12-5.4-12-12v-33.9
			C227.7,338.1,233.1,332.7,239.7,332.7z"/>
		<path class="st9" d="M233.2,150.5H267c6.6,0,12,5.4,12,12v33.9c0,6.6-5.4,12-12,12h-33.9c-6.6,0-12-5.4-12-12v-33.9
			C221.1,155.9,226.5,150.5,233.2,150.5z"/>
		<path class="st9" d="M233.2,332.7H267c6.6,0,12,5.4,12,12v33.9c0,6.6-5.4,12-12,12h-33.9c-6.6,0-12-5.4-12-12v-33.9
			C221.1,338.1,226.5,332.7,233.2,332.7z"/>
		<path class="st18" d="M275.3,267.9c-0.4,0-0.8,0-1.3,0.1c-3.2-13.9-17-22.6-30.9-19.4c-9,2.1-16.2,8.8-18.9,17.6
			c-0.4-0.1-0.8-0.1-1.2-0.2c-2.1,4.1-4.8,5-5.6,6.9c-0.1,3.7,1.4,6.4,5.1,6.5c0.4,0,0.8,0,1.2-0.1c3.2,13.9,17,22.6,30.9,19.4
			c9-2.1,16.2-8.8,18.9-17.6c0.4,0.1,1.1,0.6,1.2,0.2c1.2-3.7,3.9-4.7,4-8.4S279.1,268.1,275.3,267.9z"/>
		<path class="st19" d="M237.6,274c0.1,0,0.3-0.1,0.5-0.1c1.2,0,2.1,1.4,2.1,1.4c0.5,0.9,1.6,1.3,2.6,1c0.1,0,0.2-0.1,0.4-0.2
			c1.1-0.6,1.5-1.9,0.9-3c0,0,0,0,0,0c-0.1-0.2-2.1-3.8-6.1-3.7c-0.6,0-1.1,0.1-1.7,0.3c-1.8,0.7-3.3,2-4.1,3.8
			c-0.5,1.1,0,2.4,1.1,2.9c1.1,0.5,2.4,0,2.9-1.1C236.4,274.8,237,274.3,237.6,274z"/>
		<path class="st19" d="M259.3,268.8c-0.6,0-1.1,0.1-1.7,0.3c-1.8,0.7-3.3,2.1-4.1,3.8c-0.5,1.1,0,2.4,1.1,2.9
			c1.1,0.5,2.4,0,2.9-1.1l0,0c0.3-0.7,0.9-1.2,1.5-1.5c0.1-0.1,0.3-0.1,0.5-0.1c1.2,0,2.1,1.4,2.1,1.4c0.5,0.9,1.6,1.3,2.6,1
			c0.1,0,0.2-0.1,0.4-0.2c1.1-0.6,1.5-1.9,0.9-3c0,0,0,0,0,0C265.3,272.4,263.3,268.7,259.3,268.8z"/>
		<path class="st19" d="M276.7,265.7c-3-10.4-11.6-18.1-22.2-20c-0.7-0.1-1.4-0.2-2.2-0.3h-0.4c0.5-0.3,0.9-0.7,1.3-1.2
			c0.9-1,1.4-2.4,1.4-3.7c-0.2-3.7-3.3-6.6-7-6.4c-0.2,0-0.4,0-0.7,0.1c-0.6,0.1-1.2,0.2-1.7,0.4c-3.6,1.3-5.9,4.9-5.5,8.7
			c0.2,1.1,0.5,2.1,1,3.1c-0.3,0.1-0.7,0.2-1,0.3l-0.4,0.1c-9.6,3.1-16.9,11.1-18.9,21l-0.3,0.1c-3.3,1-5.1,4.5-4.1,7.8
			c0.7,2.2,2.5,3.8,4.7,4.2c3.4,12.6,15.2,21,28.9,20.5c2.9-0.1,5.7-0.6,8.5-1.5c9.6-3.1,16.9-11.1,18.9-21l0.3-0.1
			c3.3-1,5.1-4.5,4.1-7.8C280.7,267.9,278.9,266.3,276.7,265.7L276.7,265.7z M243.1,242.7c-0.4-2.8,1.5-5.3,4.2-5.8c0,0,0,0,0,0
			c2-0.3,3.8,1,4.2,2.9c0.1,0.6,0,1.1-0.2,1.6c-0.3,0.7-0.9,1.3-1.6,1.6c-0.6,0.2-1.3,0.1-1.8-0.2c-0.4-0.3-0.6-0.7-0.7-1.2
			c-0.1-0.7-0.7-1.2-1.4-1.3c-0.8,0-1.5,0.6-1.5,1.4c0,0.1,0,0.2,0,0.3c0.2,1.3,1,2.5,2.1,3.2c-0.6,0.1-1.1,0.1-1.7,0.2
			C243.9,244.8,243.3,243.8,243.1,242.7L243.1,242.7z M277.2,271.7c0,0.8-0.5,1.5-1.2,1.8c-0.1,0-0.3,0.1-0.4,0.1h-0.3
			c-0.3,0-0.6,0-0.8,0.1c-0.8,0.3-1.4,1-1.5,1.8c-1.3,9-7.6,16.4-16.2,19.1l0,0c-2.3,0.8-4.8,1.2-7.2,1.3
			c-12.1,0.4-22.6-7.4-24.9-18.7c-0.3-1.1-1.4-1.8-2.6-1.7c-1,0-1.8-0.7-1.9-1.7c0-0.8,0.5-1.5,1.2-1.8c0.1,0,0.3-0.1,0.4-0.1h0.3
			c0.3,0,0.5,0,0.8-0.1c0.8-0.3,1.4-1,1.5-1.8c1.2-9,7.6-16.4,16.2-19.1c0.7-0.2,1.4-0.4,2.1-0.6c1.8,1.3,4.1,2,6.3,1.9
			c1,0,1.9-0.2,2.8-0.5c1-0.3,2-0.8,2.9-1.5c9,2,16,9,18,18c0.2,1.1,1.3,1.9,2.5,1.7h0.1c0.5,0,0.9,0.2,1.3,0.5
			C277,270.8,277.2,271.3,277.2,271.7L277.2,271.7z"/>
		<path class="st19" d="M253.3,282.4c-0.8,1.7-2.4,2.9-4.3,3c-2.1,0.2-4.1-0.6-5.4-2.2c-0.8-1.1-2.4-1.3-3.5-0.5
			c-1,0.8-1.3,2.3-0.6,3.4c2.3,3.1,6.1,4.8,10,4.3c0.8-0.1,1.6-0.2,2.4-0.5c2.7-0.9,4.9-2.8,6-5.4c0.6-1.3,0-2.8-1.2-3.3
			S253.9,281.2,253.3,282.4L253.3,282.4L253.3,282.4z"/>
		<polygon class="st20" points="237.7,176.9 246.3,185.4 266,165.7 270.1,169.8 246.3,193.5 233.3,180.5 		"/>
		<path class="st20" d="M269.1,346.2h-36.3c-1.4,0-2.5,1.1-2.5,2.5l0,0c0,1.4,1.1,2.5,2.5,2.5h36.3c1.4,0,2.5-1.1,2.5-2.5l0,0
			C271.6,347.3,270.5,346.2,269.1,346.2z"/>
		<path class="st20" d="M269.1,360h-36.3c-1.4,0-2.5,1.1-2.5,2.5l0,0c0,1.4,1.1,2.5,2.5,2.5h36.3c1.4,0,2.5-1.1,2.5-2.5l0,0
			C271.6,361.1,270.5,360,269.1,360z"/>
		<path class="st20" d="M258,372.1h-14c-1.4,0-2.5,1.1-2.5,2.5l0,0c0,1.4,1.1,2.4,2.5,2.4h14c1.4,0,2.5-1.1,2.5-2.5l0,0
			C260.5,373.2,259.4,372.1,258,372.1z"/>
		<path class="st8" d="M413.6,150.5h33.9c6.6,0,12,5.4,12,12v33.9c0,6.6-5.4,12-12,12h-33.9c-6.6,0-12-5.4-12-12v-33.9
			C401.5,155.9,406.9,150.5,413.6,150.5z"/>
		<path class="st8" d="M413.6,239.9h33.9c6.6,0,12,5.4,12,12v33.9c0,6.6-5.4,12-12,12h-33.9c-6.6,0-12-5.4-12-12v-33.9
			C401.5,245.3,406.9,239.9,413.6,239.9z"/>
		<path class="st8" d="M413.6,332.7h33.9c6.6,0,12,5.4,12,12v33.9c0,6.6-5.4,12-12,12h-33.9c-6.6,0-12-5.4-12-12v-33.9
			C401.5,338.1,406.9,332.7,413.6,332.7z"/>
		<path class="st9" d="M407,150.5h33.9c6.6,0,12,5.4,12,12v33.9c0,6.6-5.4,12-12,12H407c-6.6,0-12-5.4-12-12v-33.9
			C394.9,155.9,400.3,150.5,407,150.5z"/>
		<path class="st9" d="M407,239.9h33.9c6.6,0,12,5.4,12,12v33.9c0,6.6-5.4,12-12,12H407c-6.6,0-12-5.4-12-12v-33.9
			C394.9,245.3,400.3,239.9,407,239.9z"/>
		<path class="st9" d="M407,332.7h33.9c6.6,0,12,5.4,12,12v33.9c0,6.6-5.4,12-12,12H407c-6.6,0-12-5.4-12-12v-33.9
			C394.9,338.1,400.3,332.7,407,332.7z"/>
		<path class="st19" d="M419.7,201.2c-4.2,0-7.6-2.6-9.2-6.9c-1.1-3.1-0.6-6.5,1.2-9.2c0.9-1.3,2.1-2.2,3.5-2.8
			c-1.8-1.5-3.3-3.3-4.4-5.4c-2.2-4.4-2.7-9.5-1.1-14.1c1.9-5.8,6-10.6,11.5-13.3c1.6-0.7,3.2-1.4,4.9-1.9c0.6-0.2,1.2-0.4,1.8-0.6
			c0.1-0.8,0.5-3,0.5-3c0.8-4.4,4.2-10.4,8.8-10.4c1.2,0,2.4,0.4,3.4,1.2c1.6,1.1,2.5,3,2.4,4.9c-0.1,3.8-3.2,7.8-6.1,9.8
			c-0.8,0.5-2.3,1.4-3.2,2c-0.1,1.6-0.3,4.8-0.4,6.9c3.6,0.5,7.7,2.2,9.9,5.6c3.3,4.9,2.6,9.2,1.4,12c-2.1,4.8-7.5,8.8-13.5,10.2
			c-0.4,2.5-0.8,4.7-1.2,6.8C428.9,197.7,424.7,201.2,419.7,201.2L419.7,201.2z M418.1,186.7c-0.6,0.1-1.1,0.3-1.6,0.7
			c-0.9,0.8-1.4,1.9-1.3,3.1c0.1,2.6,2.7,5.3,5.2,5.3c0.8,0,1.5-0.3,2.1-0.9c-0.6,0.2-1.2,0.3-1.8,0.3c-0.8,0-1.5-0.2-2.2-0.6
			c-1.9-1.1-2.6-3.5-1.6-5.5c0.3-0.5,0.6-0.9,1-1.2c0.2-0.1,0.3-0.3,0.4-0.5c0.1-0.2,0.1-0.5,0-0.8
			C418.4,186.7,418.3,186.7,418.1,186.7z M427,154c-1.1,0.4-2.1,0.8-3.1,1.3c-4,2.1-8.7,6.5-8.6,12c0.1,8.5,6.9,10,10.3,10.3
			c0-1.3,0.1-3.2,0.2-5.3c-0.4,0.1-0.7,0.2-1.1,0.2c-1,0-1.9-0.5-2.6-1.3c-0.4-0.6-0.7-1.2-0.9-1.9c-0.8-3,0.4-6.3,3.1-8.6
			c0.7-0.6,1.4-1.1,2.2-1.5C426.6,157.4,426.8,155.6,427,154z M432.2,177.5c2-0.5,4.7-1.5,5.8-3.3c1.2-1.8,1.5-4.2,0.8-6.3
			c-0.9-2.2-2.8-3.8-5.2-4.4l-0.5-0.1C432.8,168.1,432.4,174.3,432.2,177.5L432.2,177.5z M436.5,140.7c-0.1,0.1-0.2,0.2-0.3,0.3
			c-0.7,0.8-1.2,1.7-1.5,2.7c0.4-0.3,0.7-0.6,1-1c0.5-0.4,0.8-1,0.8-1.7C436.6,140.9,436.6,140.8,436.5,140.7L436.5,140.7z"/>
		<polygon class="st20" points="411,360.4 419.7,368.9 439.4,349.2 443.4,353.2 419.7,377 406.6,364 		"/>
		<path class="st20" d="M442,254.7h-36.3c-1.4,0-2.5,1.1-2.5,2.5l0,0c0,1.4,1.1,2.5,2.5,2.5h36.3c1.4,0,2.5-1.1,2.5-2.5l0,0
			C444.5,255.8,443.4,254.7,442,254.7z"/>
		<path class="st20" d="M442,268.5h-36.3c-1.4,0-2.5,1.1-2.5,2.5l0,0c0,1.4,1.1,2.5,2.5,2.5h36.3c1.4,0,2.5-1.1,2.5-2.5l0,0
			C444.5,269.6,443.4,268.5,442,268.5z"/>
		<path class="st20" d="M430.9,280.5h-14c-1.4,0-2.5,1.1-2.5,2.5l0,0c0,1.4,1.1,2.5,2.5,2.5h14c1.4,0,2.5-1.1,2.5-2.5l0,0
			C433.4,281.7,432.3,280.6,430.9,280.5z"/>
		<path class="st8" d="M149.3,150.5h33.9c6.6,0,12,5.4,12,12v33.9c0,6.6-5.4,12-12,12h-33.9c-6.6,0-12-5.4-12-12v-33.9
			C137.3,155.9,142.7,150.5,149.3,150.5z"/>
		<path class="st8" d="M149.3,332.7h33.9c6.6,0,12,5.4,12,12v33.9c0,6.6-5.4,12-12,12h-33.9c-6.6,0-12-5.4-12-12v-33.9
			C137.3,338.1,142.7,332.7,149.3,332.7z"/>
		<path class="st8" d="M149.3,239.9h33.9c6.6,0,12,5.4,12,12v33.9c0,6.6-5.4,12-12,12h-33.9c-6.6,0-12-5.4-12-12v-33.9
			C137.3,245.3,142.7,239.9,149.3,239.9z"/>
		<path class="st9" d="M178.6,151.7l0.8-1.3l0.1-0.8l-2.8-4l-4.6-3l-6.2-2l-7.3-0.5l-10.2,2.5l-8.4,7.8l1.9,1.9l1.4-1.8
			c-6.6,0-12,5.4-12,12v33.9c0,6.6,5.4,12,12,12h33.9c6.6,0,12-5.4,12-12v-33.8c0-5.7-4-10.7-9.6-11.8
			C178.8,150.6,179.4,151.7,178.6,151.7z"/>
		<path class="st9" d="M142.7,239.9h33.9c6.6,0,12,5.4,12,12v33.9c0,6.6-5.4,12-12,12h-33.9c-6.6,0-12-5.4-12-12v-33.9
			C130.7,245.3,136.1,239.9,142.7,239.9z"/>
		<path class="st9" d="M142.7,150.5h33.9c6.6,0,12,5.4,12,12v33.9c0,6.6-5.4,12-12,12h-33.9c-6.6,0-12-5.4-12-12v-33.9
			C130.7,155.9,136.1,150.5,142.7,150.5z"/>
		<path class="st9" d="M142.7,332.7h33.9c6.6,0,12,5.4,12,12v33.9c0,6.6-5.4,12-12,12h-33.9c-6.6,0-12-5.4-12-12v-33.9
			C130.7,338.1,136.1,332.7,142.7,332.7z"/>
		<path class="st16" d="M140.8,324.9c-0.8-1.9-1.9-3.6-3.3-5.1c-0.5-0.7-1.4-1.2-2.3-1.3c-0.8,0-1.5,0.5-1.8,1.3
			c-0.3,0.7-0.2,1.5,0.1,2.2c0.3,0.7,0.8,1.3,1.5,1.7c-0.6-0.4-1.5,0.1-2,0.6c-0.5,0.5-0.7,1.2-0.6,1.9c0.1,0.7,0.3,1.3,0.7,1.9
			c1.5,2.3,3.5,4.1,5.9,5.5c2.6,1.6,5.3,3.1,8.1,4.3"/>
		<path class="st15" d="M144.1,322.9c-1-1.6-1.7-3.4-2.1-5.3c-0.3-0.8-0.2-1.7,0.2-2.5c0.5-0.6,1.2-0.8,1.9-0.6
			c0.7,0.2,1.3,0.7,1.6,1.3c0.3,0.6,0.5,1.3,0.5,2.1c0-0.6,0.9-1.1,1.5-1.2c0.7-0.1,1.3,0.1,1.8,0.6c0.5,0.5,0.8,1,1.1,1.6
			c0.9,2.4,1.3,4.9,1,7.5c-0.2,2.8-0.5,5.7-1.1,8.5"/>
		<path class="st15" d="M151.6,332.4l-1.5,0.7l-4,1.8c-3.5-1.5-6.6-3.8-9.1-6.7c-0.8-0.9-1.5-2.1-0.9-3.2c0.6-0.9,1.7-1.2,2.6-0.9
			c0.8,0.3,1.6,0.8,2.2,1.5c-1.3-2.3-2.4-4.7-3.1-7.2c-0.2-0.5-0.2-1-0.2-1.5c0-0.3,0.1-0.7,0.3-1c0.1-0.2,0.2-0.3,0.4-0.4
			c0.6-0.3,1.2-0.3,1.8,0c0.5,0.3,1,0.7,1.4,1.2c1.5,1.9,2.8,3.9,3.9,6.1c-0.2-1-0.3-1.9-0.1-2.9c0.1-1.2,1.1-2.1,2.3-2.1
			c1.1,0.1,1.8,1.3,2.2,2.3C151.3,324,151.9,328.2,151.6,332.4z"/>
		<path class="st16" d="M151.6,332.4l-1.5,0.7c-0.2-1.9-0.6-3.7-1.3-5.4c-0.2-0.7-0.5-1.4-1-1.9c-0.5-0.6-1.2-0.9-2-0.7
			c-0.7,0.1-1.6,0.9-1.4,1.6c-1-2.1-2.1-4.1-3.1-6.2c-0.9-1.7-1.8-3.5-3.4-4.4c0.1-0.2,0.2-0.3,0.4-0.4c0.6-0.3,1.2-0.3,1.8,0
			c0.5,0.3,1,0.7,1.4,1.2c1.5,1.9,2.8,3.9,3.9,6.1c-0.2-1-0.3-1.9-0.1-2.9c0.1-1.2,1.1-2.1,2.3-2.1c1.1,0.1,1.8,1.3,2.2,2.3
			C151.3,324,151.9,328.2,151.6,332.4z"/>
		<path class="st21" d="M178.1,380.1c-1.4,2.3-4.3,3.3-7,3c-2.7-0.3-5.2-1.4-7.3-3.1c-1.4-1.2-2.6-2.3-3.6-3.3l-0.9-0.9
			c-0.7-0.7-1.3-1.3-1.9-2c-0.3-0.3-0.6-0.7-0.9-1c-0.9-1.1-1.8-2.2-2.9-3.6c-0.6-0.7-1.2-1.4-1.7-2.1l-1.5-1.8
			c-3.6-4-7-8.3-10.1-12.7c-0.5-0.8-1-1.6-1.5-2.4c-0.3-0.5-0.6-1-0.8-1.6c-0.3-0.7-0.6-1.4-0.8-2.1c-0.7-2.2-0.6-4.6,0.4-6.7
			c1.2-2.3,3.6-3.7,5.9-5l7.1-3.9l1.2-0.7c1.3-0.7,2.6-1.3,4-1.7c1.9-0.6,3.9-0.5,5.7,0.1c3.1,1.3,4.6,4.7,5.8,7.9
			c1.1,2.9,2.1,5.7,3.1,8.6c0.3,0.8,0.5,1.6,0.8,2.4c2.1,6.2,4,12.5,5.6,18.9l0.5,2c0.3,1.1,0.6,2.2,0.8,3.3
			C179,374.5,179.6,377.6,178.1,380.1z"/>
		<path class="st19" d="M170.5,345.2l-3.6,4c-0.6-1.6-1.3-3.1-1.9-4.7c-1.7-4-3.7-8-6.8-10.9c-1.8-1.6-3.9-2.8-6.3-3.4
			c1.3-0.7,2.6-1.3,4-1.7c1.9-0.6,3.9-0.5,5.7,0.1c1.2,0.5,2.2,1.4,3,2.4c0.3,0.3,0.5,0.7,0.7,1c0.8,1.4,1.5,2.9,2,4.4
			C168.4,339.4,169.5,342.3,170.5,345.2z"/>
		<path class="st19" d="M172.3,365c-1.5-5-3.1-9.9-5-14.8l4-2.7c2.1,6.2,4,12.5,5.6,18.9l-3.6,3.6
			C173.2,368.3,172.8,366.6,172.3,365z"/>
		<path class="st19" d="M178.1,380.1c-1.4,2.3-4.3,3.3-7,3c-1.8-0.2-3.5-0.7-5-1.6l0.3-0.1c3.2-1.1,5.7-3.7,6.7-6.9
			c0.3-1.1,0.4-2.2,0.4-3.3l3.9-2.8c0.3,1.1,0.6,2.2,0.8,3.3C179,374.5,179.6,377.6,178.1,380.1z"/>
		<path class="st19" d="M149.2,341.6l-10.3,8.7c-0.3-0.5-0.6-1-0.8-1.6L149.2,341.6z"/>
		<path class="st19" d="M171.3,347.6l-7.3,4.9l6.5-7.2C170.8,346,171.1,346.8,171.3,347.6z"/>
		<path class="st19" d="M167.6,365.2l-10.1,8.7c-0.3-0.3-0.6-0.7-0.9-1L167.6,365.2z"/>
		<path class="st19" d="M164.2,372l-4,4.8l-0.9-0.9L164.2,372z"/>
		<path class="st19" d="M177.5,368.5l-8.6,6.1l8.1-8.1L177.5,368.5z"/>
		<path class="st22" d="M171.3,347.6l-4,2.7c-0.1-0.4-0.3-0.7-0.4-1l3.6-4C170.8,346,171.1,346.8,171.3,347.6z"/>
		<path class="st23" d="M167.3,350.3c-0.1-0.4-0.3-0.7-0.4-1L167.3,350.3z"/>
		<path class="st22" d="M177.5,368.5l-3.9,2.8c0-0.4,0-0.8-0.1-1.2l3.5-3.5c0,0.1,0.1,0.3,0.1,0.4l0.1,0.6
			C177.3,367.8,177.4,368.1,177.5,368.5z"/>
		<path class="st23" d="M173.4,370c0,0.4,0.1,0.8,0.1,1.2L173.4,370z"/>
		<path class="st22" d="M165.4,332.2l-5,2.3l4.3-3.4C164.9,331.5,165.1,331.9,165.4,332.2z"/>
		<path class="st19" d="M159.7,361.6l-7.7,5.5l-1.5-1.8L159.7,361.6z"/>
		<path class="st20" d="M176.9,254.7h-36.3c-1.4,0-2.5,1.1-2.5,2.5l0,0c0,1.4,1.1,2.5,2.5,2.5h36.3c1.4,0,2.5-1.1,2.5-2.5l0,0
			C179.3,255.8,178.2,254.7,176.9,254.7z"/>
		<path class="st20" d="M176.9,268.5h-36.3c-1.4,0-2.5,1.1-2.5,2.5l0,0c0,1.4,1.1,2.5,2.5,2.5h36.3c1.4,0,2.5-1.1,2.5-2.5l0,0
			C179.3,269.6,178.2,268.5,176.9,268.5z"/>
		<path class="st20" d="M165.7,280.5h-14c-1.4,0-2.5,1.1-2.5,2.5l0,0c0,1.4,1.1,2.5,2.5,2.5h14c1.4,0,2.5-1.1,2.5-2.5l0,0
			C168.2,281.7,167.1,280.6,165.7,280.5z"/>
		<path class="st11" d="M175.5,174.4h-0.1l0,0l-0.3-0.1l0,0l-0.3-0.1l0,0h-0.3l0,0c-1.7-0.3-3.5,0-5,0.9l0,0l-0.2,0.1l0,0l-0.2,0.1
			l0,0l-0.2,0.1l0,0l-0.2,0.1l0,0l-0.2,0.1l0,0l-0.2,0.1l0,0l-0.2,0.1l0,0l-0.1,0.1l0,0l-0.1,0.1l0,0l-0.1,0.1l0,0l-0.1,0.1l0,0
			l-0.1,0.2l0,0c0,0-0.1,0.1-0.1,0.2l0,0c0,0.1-0.1,0.1-0.1,0.2v0.1l-0.1,0.2l0,0l-0.1,0.2v0.1l-0.1,0.2v0.1c0,0.1-0.1,0.1-0.1,0.2
			v0.1l-0.1,0.1v0.1l-0.1,0.1c0,0,0,0.1,0,0.1c0,0.1,0,0.1-0.1,0.2v0.1c0,0.1,0,0.1,0,0.1c0,0,0,0.1,0,0.1c0,0.1,0,0.1,0,0.1
			s0,0.1,0,0.1v0.1c0,0,0,0.1,0,0.1s0,0.1,0,0.1s0,0.1,0,0.1s0,0.1,0,0.1s0,0.1,0,0.1s0,0.1,0,0.1c0,0,0,0.1,0,0.1v0.1
			c0,0,0,0.1,0,0.1v0.4c0,0,0,0.1,0,0.1c0,0,0,0.1,0,0.1c0,0,0,0.1,0,0.1c0,0,0,0.1,0,0.1c0,0,0,0.1,0,0.1s0,0.1,0,0.1s0,0.1,0,0.1
			s0,0.1,0,0.2c0,0,0,0.1,0,0.1c0,0.1,0,0.1,0,0.2c0,0,0,0.1,0,0.1c0,0.1,0,0.1,0,0.2c0,0,0,0.1,0,0.1s0,0.1,0.1,0.2c0,0,0,0,0,0.1
			c0,0.1,0,0.1,0.1,0.2l0,0c0.1,0.3,0.2,0.5,0.3,0.8c1.4,3.4,1.3,7.2-0.3,10.4l0,0c0,0.1-0.1,0.2-0.1,0.3v0.1
			c-0.4,1.1-0.5,2.4-0.3,3.6l0,0l0.1,0.3c0,0,0,0.1,0,0.1v0.1c0.3,1.1,0.8,2.1,1.7,2.9l0.1,0.1l0,0c0.6,0.5,1.3,0.9,2.1,1.1
			c0.6,0.1,1.3,0.1,1.9,0h0.1h0.1h0.2h0.1h0.2h0.1l0.2-0.1h0.1l0.2-0.1h0.1h0.1l0,0c1.8-0.9,3.1-2.6,3.6-4.7l4.3-14.2
			C182.5,179.5,179.7,175.4,175.5,174.4z"/>
		<path class="st11" d="M167.6,171.7c0.2,0.1,0.3,0.2,0.5,0.3l0,0l0.2,0.1h0.1l0.2,0.1h0.1h0.2h0.7h0.2h0.1l0.2-0.1h0.1l0.2-0.1
			l0.1-0.1l0.1-0.1l0.1-0.1l0.1-0.1l0.1-0.1l0.1-0.1l0.1-0.1l0.1-0.1l0.1-0.1l0.1-0.1l0.1-0.1l0.1-0.2l0,0l0,0
			c0.3-0.4,0.4-0.9,0.4-1.4c0-1.6-1.3-2.8-2.8-2.8c0,0,0,0,0,0l0,0c-1.5,0-2.7,1.1-2.8,2.6c0,0,0,0.1,0,0.1v0.1l0,0
			C166.3,170.4,166.8,171.3,167.6,171.7z"/>
		<path class="st11" d="M173.9,169.1c-0.2,0.3-0.4,0.7-0.4,1.1c0,0.1,0,0.1,0,0.2c0.1,0.6,0.4,1.1,0.9,1.4l0,0l0.4,0.2l0,0h0.1h0.1
			h0.1h0.1h0.5h0.1h0.1h0.1h0.1h0.1h0.1l0.1-0.1h0.1h0.1l0.1-0.1h0.1l0.1-0.1l0.1-0.1l0,0l0.1-0.1l0,0c0,0,0.1-0.1,0.1-0.2l0,0
			c0.2-0.3,0.3-0.7,0.3-1.1c0-1.1-0.9-2-2-2h-0.4h-0.1c-0.4,0.1-0.8,0.3-1.1,0.6l0,0C174,169,174,169.1,173.9,169.1z"/>
		<path class="st11" d="M178.8,171.8c-0.2,0.4-0.3,0.8-0.1,1.2l0,0c0,0,0,0.1,0,0.1v0.1l0,0c0,0,0,0.1,0,0.1l0,0v0.1l0,0l0.1,0.1
			l0.1,0.1l0.1,0.1l0.1,0.1h0.1h0.1l0.1,0.1l0,0c0.2,0.1,0.4,0.2,0.6,0.2h0.4c0.9,0,1.6-0.8,1.5-1.7c0-0.6-0.4-1.1-0.9-1.3l0,0h-0.1
			h-0.1l0,0c-0.4-0.2-0.8-0.2-1.2,0l0,0h-0.1c-0.3,0.1-0.5,0.3-0.6,0.6c0,0,0,0.1,0,0.1L178.8,171.8z"/>
		<path class="st11" d="M183.1,177.1h0.2h0.1h0.1l0,0h0.1l0,0l0,0c0.6-0.3,0.9-1.1,0.6-1.7c-0.1-0.2-0.3-0.4-0.5-0.6l0,0h-0.1l0,0
			l0,0c-0.3-0.1-0.7-0.1-1,0l0,0h-0.1c-0.2,0.1-0.4,0.3-0.5,0.5c0,0,0,0,0,0.1l0,0c-0.2,0.3-0.2,0.7-0.1,1.1l0,0l0,0l0,0l0,0v0.1
			l0,0v0.1l0,0l0.1,0.1l0,0l0.1,0.1l0,0l0.1,0.1l0,0h0.1l0,0h0.1h0.1h0.1l0,0h0.1h0.4L183.1,177.1z"/>
		<ellipse class="st11" cx="184" cy="179.4" rx="0.9" ry="0.8"/>
		<path class="st11" d="M150.8,202.9l0.1-0.1l0.1-0.1l0.2-0.1h0.1l0.2-0.1h0.1l0.2-0.1l0,0l0.2-0.1l0,0c2.1-1.9,2.8-5,1.6-7.6
			c-1.7-3.3-1.8-7.1-0.3-10.4c1.7-3.5,0.3-7.7-3.2-9.4c-1.3-0.6-2.7-0.8-4-0.6l0,0h-0.3l0,0h-0.3l0,0h-0.2h-0.1l-0.2,0.1h-0.1
			l-0.2,0.1c-1.3,0.4-2.4,1.1-3.4,2c-2.1,1.9-3,4.7-2.4,7.5c0,0,4.3,14.2,4.3,14.2c0.5,2.2,1.9,4,4,4.9c0.2,0.1,0.4,0.1,0.6,0.2
			c0.2,0,0.4,0.1,0.6,0.1c0.7,0.1,1.4,0.1,2-0.1l0.3-0.1h0.1L150.8,202.9z"/>
		<path class="st11" d="M148.2,169.6v0.1c0,0,0,0.1,0,0.1c0,0.1,0,0.1,0,0.2v0c0.2,0.8,0.7,1.5,1.4,1.9l0.1,0.1l0,0
			c0.4,0.2,0.8,0.3,1.2,0.3h0.3c0.8-0.1,1.5-0.5,2-1.2c0,0,0,0,0-0.1l0.1-0.1l0,0c0.2-0.4,0.4-0.9,0.4-1.4c0-1.6-1.3-2.8-2.8-2.8
			c0,0,0,0,0,0h-0.2h-0.2h-0.1h-0.1H150l-0.1,0.1h-0.1l-0.1,0.1l-0.1,0.1l-0.1,0.1c0,0-0.1,0-0.1,0.1l-0.1,0.1l-0.1,0.1l-0.1,0.1
			l-0.1,0.1l-0.1,0.1l-0.1,0.1l-0.1,0.1l-0.1,0.1c0,0-0.1,0.1-0.1,0.1l-0.1,0.1l-0.1,0.1c0,0,0,0.1-0.1,0.1l-0.1,0.1v0.1
			c0,0,0,0.1,0,0.1v0.1v0.1c0,0.1,0,0.1,0,0.1c0,0,0,0.1,0,0.1c0,0.1,0,0.1,0,0.1l0,0C148.1,169.3,148.1,169.4,148.2,169.6z"/>
		<path class="st11" d="M138.4,172.1L138.4,172.1c-0.1,0.4-0.1,0.8,0.1,1.2l0,0l0.1,0.1c0.2,0.3,0.4,0.5,0.6,0.6h0.1l0,0
			c0.4,0.2,0.8,0.2,1.2,0l0,0h0.1h0.1l0,0c0.5-0.3,0.8-0.8,0.8-1.4c0-0.8-0.6-1.5-1.4-1.6c-0.1,0-0.3,0-0.4,0h-0.1
			c-0.2,0-0.3,0.1-0.4,0.2l0,0l-0.1,0.1H139l-0.1,0.1h-0.1l-0.1,0.1v0.1l-0.1,0.1c0,0,0,0,0,0.1l-0.1,0.1v0.1c0,0,0,0.1-0.1,0.1l0,0
			l0,0v0.1L138.4,172.1z"/>
		<path class="st11" d="M137.3,174.6c-0.1,0-0.3,0-0.4,0l0,0h-0.1l0,0h-0.1l0,0h-0.1h-0.1h-0.1h-0.1l0,0l-0.1,0.1l0,0l-0.1,0.1l0,0
			c0,0,0,0,0,0.1v0.1l0,0c0,0,0,0,0,0.1l0,0l0,0c0,0,0,0,0,0.1v0.1l0,0c-0.1,0.3-0.1,0.7,0.1,1l0,0l0,0c0.1,0.2,0.3,0.4,0.5,0.5h0.1
			l0,0c0.3,0.1,0.7,0.1,1,0l0,0h0.1h0.1l0,0c0.6-0.3,0.8-1.1,0.5-1.7c-0.2-0.4-0.6-0.6-1-0.7L137.3,174.6z"/>
		<path class="st11" d="M136.2,178.5c-0.5,0-0.8,0.4-0.8,0.9c0,0.5,0.4,0.8,0.9,0.8c0.5,0,0.8-0.4,0.8-0.8
			C137,178.9,136.6,178.5,136.2,178.5C136.2,178.5,136.2,178.5,136.2,178.5z"/>
		<path class="st11" d="M181.4,150.3c-4.8-7.2-12.7-11.5-21.3-11.7l0,0c-8.6,0.1-16.6,4.5-21.3,11.7c-0.3,0.5-0.2,1.2,0.3,1.5
			c0,0,0,0,0,0c5.1,3.4,9,6,12.5,8.6c0.2,0.1,0.4,0.2,0.7,0.2h0.1c0.4-0.1,0.7-0.3,0.9-0.6c1.4-2.5,4-4,6.9-4.2l0,0
			c2.8,0.1,5.4,1.7,6.9,4.2c0.1,0.2,0.2,0.3,0.4,0.4c0.4,0.3,0.9,0.3,1.3,0c3.6-2.6,7.4-5.3,12.5-8.6
			C181.7,151.5,181.8,150.8,181.4,150.3C181.4,150.3,181.4,150.3,181.4,150.3z M178.3,151c-3.7,2.4-6.7,4.5-9.5,6.5
			c-0.4,0.3-0.8,0.2-1.1-0.1c-1.7-1.9-4-3.2-6.5-3.6l0,0V149c0-0.6-0.5-1.1-1.1-1.1c-0.6,0-1.1,0.5-1.1,1.1c0,0,0,0,0,0v4.9l0,0
			c-2.5,0.4-4.8,1.6-6.5,3.5c-0.3,0.4-0.9,0.4-1.2,0.1c-2.8-2-5.7-4-9.4-6.4c-0.3-0.2-0.4-0.7-0.2-1c0,0,0,0,0-0.1
			c1.3-1.6,2.8-3.1,4.4-4.3l0,0l-0.3-0.4l0.3,0.4l1.5,2c0.2,0.3,0.5,0.5,0.9,0.5c0.2,0,0.5-0.1,0.6-0.2c0.5-0.3,0.6-1,0.3-1.5
			c0,0,0,0,0,0l-1.4-2l-0.3-0.5l0.3,0.4l0,0c3.3-2,7.1-3.2,11-3.5l0,0v2.2c0.1,0.6,0.6,1.1,1.2,1c0.5-0.1,0.9-0.5,1-1v-2.1l0,0
			c3.9,0.3,7.7,1.5,11,3.5l0,0l0.3-0.4l-0.3,0.5l-1.4,2c-0.3,0.5-0.2,1.2,0.3,1.5c0.2,0.1,0.4,0.2,0.6,0.2c0.4,0,0.7-0.2,0.9-0.5
			l1.5-2l0.3-0.4l-0.3,0.4l0,0c1.7,1.2,3.2,2.7,4.5,4.3C178.7,150.3,178.6,150.8,178.3,151L178.3,151z"/>
		<path class="st8" d="M328.4,150.5h33.9c6.6,0,12,5.4,12,12v33.9c0,6.6-5.4,12-12,12h-33.9c-6.6,0-12-5.4-12-12v-33.9
			C316.4,155.9,321.8,150.5,328.4,150.5z"/>
		<path class="st8" d="M328.4,239.9h33.9c6.6,0,12,5.4,12,12v33.9c0,6.6-5.4,12-12,12h-33.9c-6.6,0-12-5.4-12-12v-33.9
			C316.4,245.3,321.8,239.9,328.4,239.9z"/>
		<path class="st8" d="M328.4,332.7h33.9c6.6,0,12,5.4,12,12v33.9c0,6.6-5.4,12-12,12h-33.9c-6.6,0-12-5.4-12-12v-33.9
			C316.4,338.1,321.8,332.7,328.4,332.7z"/>
		<path class="st9" d="M321.8,150.5h33.9c6.6,0,12,5.4,12,12v33.9c0,6.6-5.4,12-12,12h-33.9c-6.6,0-12-5.4-12-12v-33.9
			C309.8,155.9,315.2,150.5,321.8,150.5z"/>
		<path class="st9" d="M321.8,239.9h33.9c6.6,0,12,5.4,12,12v33.9c0,6.6-5.4,12-12,12h-33.9c-6.6,0-12-5.4-12-12v-33.9
			C309.8,245.3,315.2,239.9,321.8,239.9z"/>
		<path class="st9" d="M321.8,332.7h33.9c6.6,0,12,5.4,12,12v33.9c0,6.6-5.4,12-12,12h-33.9c-6.6,0-12-5.4-12-12v-33.9
			C309.8,338.1,315.2,332.7,321.8,332.7z"/>
		<polygon class="st20" points="324.9,267.5 333.6,276 353.3,256.3 357.3,260.4 333.6,284.1 320.5,271.1 		"/>
		<path class="st20" d="M356.9,165.2h-36.3c-1.4,0-2.5,1.1-2.5,2.5l0,0c0,1.4,1.1,2.5,2.5,2.5h36.3c1.4,0,2.5-1.1,2.5-2.5l0,0
			C359.4,166.3,358.3,165.2,356.9,165.2z"/>
		<path class="st20" d="M356.9,178.9h-36.3c-1.4,0-2.5,1.1-2.5,2.5l0,0c0,1.4,1.1,2.5,2.5,2.5h36.3c1.4,0,2.5-1.1,2.5-2.5l0,0
			C359.4,180.1,358.3,178.9,356.9,178.9z"/>
		<path class="st20" d="M345.8,191h-14c-1.4,0-2.5,1.1-2.5,2.5l0,0c0,1.4,1.1,2.5,2.5,2.5h14c1.4,0,2.5-1.1,2.5-2.5l0,0
			C348.2,192.1,347.1,191,345.8,191z"/>
		<path class="st24" d="M360.1,344.8c-6.1-2.7-13-3.4-19.6-2c-6.8,1.6-13,5.2-17.7,10.3c8.2,8.1,13.3,18.7,14.5,30.2
			c4.8,2.1,10.3,1.7,14.7-1.1C349.9,369.2,352.8,355.9,360.1,344.8z M342.6,363.3c-0.2,0.9-1.1,1.5-2,1.3c-0.5-0.1-0.9-0.4-1.1-0.9
			c-0.8-1.5-1.7-3-2.6-4.6c-1.5-2.5-3-5.1-4.6-7.5c-1.3-2-1.9-3.5,0.5-4.8c2.4-1.1,5-1.7,7.7-1.7c0.6,0,7.8,0.7,7.6,1.1
			C345.7,351.8,343.9,357.5,342.6,363.3L342.6,363.3z"/>
		<path class="st25" d="M340.5,342.8c-6.8,1.6-13,5.2-17.7,10.3c3.3,3.3,6.1,7,8.4,11c2.5-0.3,4.9-1.2,7.1-2.5
			c-0.5-0.8-0.9-1.6-1.4-2.4c-1.5-2.5-3-5.1-4.6-7.5c-1.3-2-1.9-3.5,0.5-4.8c2.4-1.1,5-1.7,7.7-1.7c0.6,0,7.8,0.7,7.6,1.1
			c-2.1,5.1-3.8,10.3-5.1,15.6c1.5,0.9,3.2,1.5,5,1.6c1.5,0.1,3.1-0.1,4.5-0.5c1.3-6.5,3.9-12.7,7.6-18.2
			C354,342.1,347.1,341.4,340.5,342.8z"/>
		<path class="st26" d="M352.5,357.8c-2.4,1.7-5.4,2.5-8.3,2.3c-2.8-0.2-5.5-1.5-7.4-3.5c-3.6,3.1-8.4,4.7-13.1,4.3
			c-1.6-0.1-3.1-0.6-4.5-1.3c-1.3-1-2.2-2.4-2.4-4.1c-5.6,0.1-10.3-4.3-10.4-9.9c0-1.4,0.2-2.8,0.7-4.1c1.6-3.4,4.6-6,8.3-6.9
			c-1.6-2.3-1.7-5.4-0.1-7.7c1.6-2.3,4.2-3.7,7-3.8c2.8-0.1,5.5,0.8,7.7,2.4c5.6-6,14.5-9.5,22-6.3c2.7,1.1,5.5,3.4,5.5,6.3
			c4.4,0.4,8.2,3.4,10.2,7.4c2,4,1.9,8.8-0.3,12.7c1.1,3.8-0.5,9.2-3.7,11.6C360.4,359.6,356,359.8,352.5,357.8z"/>
		<path class="st25" d="M367.4,345.5c2.2-3.9,2.3-8.7,0.3-12.7c-1.6-3.2-4.5-5.7-7.9-6.9c3.7,2.6,4.5,7.6,2,11.3
			c-1,1.5-2.5,2.6-4.3,3.1c1.8,2.1,1.4,6-0.4,8.1c-1.9,2.2-5,2.8-7.6,1.4c-1.4,2.1-3.7,3.4-6.2,3.6c-2.3,0-4.5-1.1-5.9-3
			c-1.6,4-5.6,6.7-9.7,7.7c-3.3,0.7-6.6,0.7-9.9,0c0.4,0.5,0.8,1,1.4,1.4c1.4,0.8,2.9,1.2,4.5,1.3c4.8,0.4,9.5-1.1,13.1-4.3
			c2,2,4.6,3.3,7.4,3.5c3,0.2,5.9-0.6,8.3-2.3c3.5,2.1,8,1.8,11.2-0.6C366.9,354.7,368.5,349.3,367.4,345.5z"/>
		<path class="st27" d="M309.4,344.9c-0.3-2.5,0.5-4.9,2-6.8c0.4-0.4,1.1-0.9,1.5-0.4s0,1-0.3,1.4c-1.6,2.3-1.6,5.2-0.2,7.6
			c0.5,0.6,1,1.4,1.3,2.1c0.2,0.5,0.1,1.8-0.6,2s-1.5-0.9-1.9-1.4C310.2,348,309.6,346.5,309.4,344.9z"/>
		<path class="st27" d="M316.1,352.4c0.1,0.5-0.3,1-0.9,1.1c-0.6,0.1-1.1-0.3-1.1-0.9s0.3-1.1,0.9-1.1
			C315.5,351.5,316,351.9,316.1,352.4C316.1,352.4,316.1,352.4,316.1,352.4z"/>
		<path class="st27" d="M344.4,320.9c0.7-0.1,1.3,0.1,1.9,0.4c0.6,0.4,0.8,1.1,0.5,1.7c-0.4,0.7-1.4,0.6-2.2,0.6
			c-3.7-0.3-7.4,0.9-10.3,3.3c-0.7,0.6-2.7,1.3-2.2-0.4c0.2-0.6,2.7-1.8,3.2-2.2C338,322.5,341.1,321,344.4,320.9z"/>
		<path class="st27" d="M351.5,322.5c0.1,0.6-0.3,1.2-0.9,1.3c-0.6,0.1-1.2-0.3-1.3-0.9c0,0,0-0.1,0-0.1c0-0.6,0.4-1.2,1.1-1.2
			C350.9,321.5,351.4,321.9,351.5,322.5z"/>
	</g>
</g>
</svg>
