<svg xmlns="http://www.w3.org/2000/svg" viewBox="0 0 330.94 196.76"><defs><style>.cls-1{fill:#d385d2;}</style></defs><title>logo</title><g id="Layer_2" data-name="Layer 2"><g id="Layer_1-2" data-name="Layer 1"><path class="cls-1" d="M119.2,196.76c-23.58,0-38.71-14.8-38.71-35.79S95.62,125.19,119,125.19,157.75,140,157.75,161C157.75,182.12,142.46,196.76,119.2,196.76ZM119,140.15c-11.87,0-20,8.63-20,20.82,0,12.36,8.14,20.82,20,20.82,12,0,20.17-8.46,20.17-20.82C139.21,148.78,131.08,140.15,119,140.15Z"/><path class="cls-1" d="M205.69,196.76C182.11,196.76,167,182,167,161s15.13-35.78,38.55-35.78S244.24,140,244.24,161C244.24,182.12,229,196.76,205.69,196.76Zm-.16-56.61c-11.88,0-20,8.63-20,20.82,0,12.36,8.13,20.82,20,20.82,12,0,20.17-8.46,20.17-20.82C225.7,148.78,217.56,140.15,205.53,140.15Z"/><path class="cls-1" d="M17.85,83.51c0-.33,0-.67,0-1V52.07c0-11.06,8.86-14.8,14.88-14.8S47.65,41,47.65,52.07V82.48c0,5.7,3.41,8.46,8.78,8.46s9.11-2.93,9.11-8.46V52.07c0-11.06,8.86-14.8,14.87-14.8,6.18,0,14.88,3.74,14.88,14.8V82.48c0,5.7,3.58,8.46,8.95,8.46s8.94-2.93,8.94-8.46V52.07C113.18,27.51,97.82,21,83.83,21,73.7,21,63.4,24.28,59,30.3a3,3,0,0,1-4.91,0C49.91,24.36,40,21,29.51,21,16,21,0,26.86,0,52.07V188.62c0,5.53,4.55,8.14,9,8.14s8.94-2.61,8.94-8.14V160.16c.49-10.57,5.53-17.4,17.24-17.4,11.39,0,16.59,6.34,16.59,18.7V188.3c0,5.53,4.56,8.46,9.11,8.46,4.39,0,8.78-2.93,8.78-8.46V161.46c0-26.67-11.87-34.64-28.62-34.64a31.4,31.4,0,0,0-17.55,4.88,3.56,3.56,0,0,1-5.55-2.95V86.15"/><path class="cls-1" d="M330.94,50.44c0-24.56-15.36-31.06-29.35-31.06-10.13,0-20.43,3.27-24.79,9.29a3,3,0,0,1-4.91,0c-4.22-5.91-14.14-9.26-24.61-9.26-13.5,0-29.52,5.85-29.52,31.06V80.86c0,5.53,3.58,8.46,8.78,8.46,5.37,0,9.11-2.93,9.11-8.46V50.44c0-11.06,8.86-14.8,14.88-14.8s14.88,3.74,14.88,14.8V80.86c0,5.69,3.41,8.46,8.78,8.46s9.11-2.93,9.11-8.46V50.44c0-11.06,8.86-14.8,14.87-14.8,6.19,0,14.88,3.74,14.88,14.8V80.86a11.35,11.35,0,0,0,.17,2,8.18,8.18,0,0,0-.17,1.68v40.14A4.85,4.85,0,0,1,306,129a37.62,37.62,0,0,0-17.51-3.82c-20.49,0-34.48,13.5-34.48,36.27,0,22.45,16.43,35.3,38.39,35.3,23.74,0,38.22-15.78,38.54-35.95V84.53a8.27,8.27,0,0,0-.17-1.69,11.32,11.32,0,0,0,.17-2ZM292.4,181.79c-10.58,0-19.85-7.15-19.85-21,0-13.66,9.27-20.82,19.85-20.82,11.22,0,20.33,8,20.33,20.82C312.73,174,303.62,181.79,292.4,181.79Z"/><path class="cls-1" d="M149.77,50.39a2.16,2.16,0,0,1,.66.1c1.69.49,2.22,2.82,2.22,2.82a3.12,3.12,0,0,0,2.21,2.45,3,3,0,0,0,.89.13,3.64,3.64,0,0,0,.56,0,3.14,3.14,0,0,0,2.53-3.66c-.05-.25-1.2-6.14-6.66-7.73a8.76,8.76,0,0,0-2.43-.35,10.7,10.7,0,0,0-7.33,3.3A3.14,3.14,0,0,0,147,51.71,4.51,4.51,0,0,1,149.77,50.39Z"/><path class="cls-1" d="M181.58,53a8.83,8.83,0,0,0-2.44-.35,10.86,10.86,0,0,0-7.32,3.3,3.14,3.14,0,0,0,4.58,4.29,4.51,4.51,0,0,1,2.76-1.3,2.39,2.39,0,0,1,.66.09c1.7.5,2.22,2.77,2.23,2.83a3.13,3.13,0,0,0,2.21,2.45,3,3,0,0,0,.88.13,3.66,3.66,0,0,0,.57,0,3.14,3.14,0,0,0,2.52-3.65C188.19,60.51,187.11,54.63,181.58,53Z"/><path class="cls-1" d="M206.65,56.6c.83-15-7.39-29.52-21.22-37.21-.93-.51-1.86-1-2.81-1.43l-.52-.25a9.6,9.6,0,0,0,2.32-1A7.65,7.65,0,0,0,188,12.26a9.53,9.53,0,0,0-1.14-7.75,9.66,9.66,0,0,0-6.5-4.34A12.62,12.62,0,0,0,177.77,0c-5.73.23-10.54,4.17-11.43,9.37a14.68,14.68,0,0,0,0,4.63l-1.48-.08h-.54A40.06,40.06,0,0,0,129.12,34h-.39a8.89,8.89,0,0,0-4.44,16.59C123.24,69.25,135.52,86,154.42,91.52a43.85,43.85,0,0,0,12.21,1.75,40.08,40.08,0,0,0,35.19-20.09h.39a8.88,8.88,0,0,0,4.44-16.58ZM171.2,10.28a7.3,7.3,0,0,1,6.87-6,7,7,0,0,1,1.52.1,5.4,5.4,0,0,1,4.46,5.9A3.51,3.51,0,0,1,183,12.36a4.52,4.52,0,0,1-2.87,1.43,2.67,2.67,0,0,1-2.34-1.15,2.89,2.89,0,0,1-.46-2,2.12,2.12,0,0,0-3.05-2.25,2.12,2.12,0,0,0-1.11,1.6,6.85,6.85,0,0,0,1.36,5.32c-.78-.18-1.59-.35-2.42-.51A8.15,8.15,0,0,1,171.2,10.28ZM204.71,65a2.61,2.61,0,0,1-2.49,1.87,3.05,3.05,0,0,1-.56-.05l-.36-.15a3,3,0,0,0-1.18-.24,3.15,3.15,0,0,0-2.82,1.79C191.75,79.81,180,87,166.62,87h0a37.3,37.3,0,0,1-10.45-1.51c-16.69-4.86-27.39-20.27-25.43-36.62A3.48,3.48,0,0,0,128,45.37a2.6,2.6,0,0,1,.73-5.1,4.15,4.15,0,0,1,.55,0l.4.17a3.05,3.05,0,0,0,1.12.21,3.18,3.18,0,0,0,2.85-1.78c5.55-11.54,17.3-18.71,30.66-18.71,1.06,0,2.12.05,3.18.14a15,15,0,0,0,7.74,5.47,14.38,14.38,0,0,0,4,.57,15.42,15.42,0,0,0,4.55-.7c11.51,7,17.93,19.78,16.39,32.63a3.17,3.17,0,0,0,2.56,3.47h.19A2.61,2.61,0,0,1,204.71,65Z"/><path class="cls-1" d="M167.35,68.82a7.32,7.32,0,0,1-7.23,2.12,8.63,8.63,0,0,1-6.36-5.48,3.61,3.61,0,0,0-6.9,2.13A15.86,15.86,0,0,0,158.52,78a16,16,0,0,0,3.55.4,14.21,14.21,0,0,0,10.59-4.66,3.61,3.61,0,0,0-5.31-4.9Z"/></g></g></svg>